  0
SECTION
  2
HEADER
  9
$ACADVER
  1
AC1027
  9
$ACADMAINTVER
 70
105
  9
$DWGCODEPAGE
  3
ANSI_1252
  9
$LASTSAVEDBY
  1
ezdxf
  9
$REQUIREDVERSIONS
160
0
  9
$INSBASE
 10
0.0
 20
0.0
 30
0.0
  9
$EXTMIN
 10
1e+20
 20
1e+20
 30
1e+20
  9
$EXTMAX
 10
-1e+20
 20
-1e+20
 30
-1e+20
  9
$LIMMIN
 10
0.0
 20
0.0
  9
$LIMMAX
 10
420.0
 20
297.0
  9
$ORTHOMODE
 70
0
  9
$REGENMODE
 70
1
  9
$FILLMODE
 70
1
  9
$QTEXTMODE
 70
0
  9
$MIRRTEXT
 70
1
  9
$LTSCALE
 40
1.0
  9
$ATTMODE
 70
1
  9
$TEXTSIZE
 40
2.5
  9
$TRACEWID
 40
1.0
  9
$TEXTSTYLE
  7
Standard
  9
$CLAYER
  8
0
  9
$CELTYPE
  6
ByLayer
  9
$CECOLOR
 62
256
  9
$CELTSCALE
 40
1.0
  9
$DISPSILH
 70
0
  9
$DIMSCALE
 40
1.0
  9
$DIMASZ
 40
2.5
  9
$DIMEXO
 40
0.625
  9
$DIMDLI
 40
3.75
  9
$DIMRND
 40
0.0
  9
$DIMDLE
 40
0.0
  9
$DIMEXE
 40
1.25
  9
$DIMTP
 40
0.0
  9
$DIMTM
 40
0.0
  9
$DIMTXT
 40
2.5
  9
$DIMCEN
 40
2.5
  9
$DIMTSZ
 40
0.0
  9
$DIMTOL
 70
0
  9
$DIMLIM
 70
0
  9
$DIMTIH
 70
0
  9
$DIMTOH
 70
0
  9
$DIMSE1
 70
0
  9
$DIMSE2
 70
0
  9
$DIMTAD
 70
1
  9
$DIMZIN
 70
8
  9
$DIMBLK
  1

  9
$DIMASO
 70
1
  9
$DIMSHO
 70
1
  9
$DIMPOST
  1

  9
$DIMAPOST
  1

  9
$DIMALT
 70
0
  9
$DIMALTD
 70
3
  9
$DIMALTF
 40
0.03937007874
  9
$DIMLFAC
 40
1.0
  9
$DIMTOFL
 70
1
  9
$DIMTVP
 40
0.0
  9
$DIMTIX
 70
0
  9
$DIMSOXD
 70
0
  9
$DIMSAH
 70
0
  9
$DIMBLK1
  1

  9
$DIMBLK2
  1

  9
$DIMSTYLE
  2
ISO-25
  9
$DIMCLRD
 70
0
  9
$DIMCLRE
 70
0
  9
$DIMCLRT
 70
0
  9
$DIMTFAC
 40
1.0
  9
$DIMGAP
 40
0.625
  9
$DIMJUST
 70
0
  9
$DIMSD1
 70
0
  9
$DIMSD2
 70
0
  9
$DIMTOLJ
 70
0
  9
$DIMTZIN
 70
8
  9
$DIMALTZ
 70
0
  9
$DIMALTTZ
 70
0
  9
$DIMUPT
 70
0
  9
$DIMDEC
 70
2
  9
$DIMTDEC
 70
2
  9
$DIMALTU
 70
2
  9
$DIMALTTD
 70
3
  9
$DIMTXSTY
  7
Standard
  9
$DIMAUNIT
 70
0
  9
$DIMADEC
 70
0
  9
$DIMALTRND
 40
0.0
  9
$DIMAZIN
 70
0
  9
$DIMDSEP
 70
44
  9
$DIMATFIT
 70
3
  9
$DIMFRAC
 70
0
  9
$DIMLDRBLK
  1

  9
$DIMLUNIT
 70
2
  9
$DIMLWD
 70
-2
  9
$DIMLWE
 70
-2
  9
$DIMTMOVE
 70
0
  9
$DIMFXL
 40
1.0
  9
$DIMFXLON
 70
0
  9
$DIMJOGANG
 40
0.785398163397
  9
$DIMTFILL
 70
0
  9
$DIMTFILLCLR
 70
0
  9
$DIMARCSYM
 70
0
  9
$DIMLTYPE
  6

  9
$DIMLTEX1
  6

  9
$DIMLTEX2
  6

  9
$DIMTXTDIRECTION
 70
0
  9
$LUNITS
 70
2
  9
$LUPREC
 70
4
  9
$SKETCHINC
 40
1.0
  9
$FILLETRAD
 40
10.0
  9
$AUNITS
 70
0
  9
$AUPREC
 70
2
  9
$MENU
  1
.
  9
$ELEVATION
 40
0.0
  9
$PELEVATION
 40
0.0
  9
$THICKNESS
 40
0.0
  9
$LIMCHECK
 70
0
  9
$CHAMFERA
 40
0.0
  9
$CHAMFERB
 40
0.0
  9
$CHAMFERC
 40
0.0
  9
$CHAMFERD
 40
0.0
  9
$SKPOLY
 70
0
  9
$TDCREATE
 40
2460720.4355439814
  9
$TDUCREATE
 40
2458532.153996898
  9
$TDUPDATE
 40
2460720.4355439814
  9
$TDUUPDATE
 40
2458532.1544311
  9
$TDINDWG
 40
0.0
  9
$TDUSRTIMER
 40
0.0
  9
$USRTIMER
 70
1
  9
$ANGBASE
 50
0.0
  9
$ANGDIR
 70
0
  9
$PDMODE
 70
0
  9
$PDSIZE
 40
0.0
  9
$PLINEWID
 40
0.0
  9
$SPLFRAME
 70
0
  9
$SPLINETYPE
 70
6
  9
$SPLINESEGS
 70
8
  9
$HANDSEED
  5
157
  9
$SURFTAB1
 70
6
  9
$SURFTAB2
 70
6
  9
$SURFTYPE
 70
6
  9
$SURFU
 70
6
  9
$SURFV
 70
6
  9
$UCSBASE
  2

  9
$UCSNAME
  2

  9
$UCSORG
 10
0.0
 20
0.0
 30
0.0
  9
$UCSXDIR
 10
1.0
 20
0.0
 30
0.0
  9
$UCSYDIR
 10
0.0
 20
1.0
 30
0.0
  9
$UCSORTHOREF
  2

  9
$UCSORTHOVIEW
 70
0
  9
$UCSORGTOP
 10
0.0
 20
0.0
 30
0.0
  9
$UCSORGBOTTOM
 10
0.0
 20
0.0
 30
0.0
  9
$UCSORGLEFT
 10
0.0
 20
0.0
 30
0.0
  9
$UCSORGRIGHT
 10
0.0
 20
0.0
 30
0.0
  9
$UCSORGFRONT
 10
0.0
 20
0.0
 30
0.0
  9
$UCSORGBACK
 10
0.0
 20
0.0
 30
0.0
  9
$PUCSBASE
  2

  9
$PUCSNAME
  2

  9
$PUCSORG
 10
0.0
 20
0.0
 30
0.0
  9
$PUCSXDIR
 10
1.0
 20
0.0
 30
0.0
  9
$PUCSYDIR
 10
0.0
 20
1.0
 30
0.0
  9
$PUCSORTHOREF
  2

  9
$PUCSORTHOVIEW
 70
0
  9
$PUCSORGTOP
 10
0.0
 20
0.0
 30
0.0
  9
$PUCSORGBOTTOM
 10
0.0
 20
0.0
 30
0.0
  9
$PUCSORGLEFT
 10
0.0
 20
0.0
 30
0.0
  9
$PUCSORGRIGHT
 10
0.0
 20
0.0
 30
0.0
  9
$PUCSORGFRONT
 10
0.0
 20
0.0
 30
0.0
  9
$PUCSORGBACK
 10
0.0
 20
0.0
 30
0.0
  9
$USERI1
 70
0
  9
$USERI2
 70
0
  9
$USERI3
 70
0
  9
$USERI4
 70
0
  9
$USERI5
 70
0
  9
$USERR1
 40
0.0
  9
$USERR2
 40
0.0
  9
$USERR3
 40
0.0
  9
$USERR4
 40
0.0
  9
$USERR5
 40
0.0
  9
$WORLDVIEW
 70
1
  9
$SHADEDGE
 70
3
  9
$SHADEDIF
 70
70
  9
$TILEMODE
 70
1
  9
$MAXACTVP
 70
64
  9
$PINSBASE
 10
0.0
 20
0.0
 30
0.0
  9
$PLIMCHECK
 70
0
  9
$PEXTMIN
 10
1e+20
 20
1e+20
 30
1e+20
  9
$PEXTMAX
 10
-1e+20
 20
-1e+20
 30
-1e+20
  9
$PLIMMIN
 10
0.0
 20
0.0
  9
$PLIMMAX
 10
420.0
 20
297.0
  9
$UNITMODE
 70
0
  9
$VISRETAIN
 70
1
  9
$PLINEGEN
 70
0
  9
$PSLTSCALE
 70
1
  9
$TREEDEPTH
 70
3020
  9
$CMLSTYLE
  2
Standard
  9
$CMLJUST
 70
0
  9
$CMLSCALE
 40
20.0
  9
$PROXYGRAPHICS
 70
1
  9
$MEASUREMENT
 70
1
  9
$CELWEIGHT
370
-1
  9
$ENDCAPS
280
0
  9
$JOINSTYLE
280
0
  9
$LWDISPLAY
290
0
  9
$INSUNITS
 70
6
  9
$HYPERLINKBASE
  1

  9
$STYLESHEET
  1

  9
$XEDIT
290
1
  9
$CEPSNTYPE
380
0
  9
$PSTYLEMODE
290
1
  9
$FINGERPRINTGUID
  2
{6F746AE2-1AD7-40B6-9D71-4B9B9F985B71}
  9
$VERSIONGUID
  2
{3560D41B-0F40-4D93-8135-1ADB58407616}
  9
$EXTNAMES
290
1
  9
$PSVPSCALE
 40
0.0
  9
$OLESTARTUP
290
0
  9
$SORTENTS
280
127
  9
$INDEXCTL
280
0
  9
$HIDETEXT
280
1
  9
$XCLIPFRAME
280
0
  9
$HALOGAP
280
0
  9
$OBSCOLOR
 70
257
  9
$OBSLTYPE
280
0
  9
$INTERSECTIONDISPLAY
280
0
  9
$INTERSECTIONCOLOR
 70
257
  9
$DIMASSOC
280
2
  9
$PROJECTNAME
  1

  9
$CAMERADISPLAY
290
0
  9
$LENSLENGTH
 40
50.0
  9
$CAMERAHEIGHT
 40
0.0
  9
$STEPSPERSEC
 40
24.0
  9
$STEPSIZE
 40
100.0
  9
$3DDWFPREC
 40
2.0
  9
$PSOLWIDTH
 40
0.005
  9
$PSOLHEIGHT
 40
0.08
  9
$LOFTANG1
 40
1.570796326795
  9
$LOFTANG2
 40
1.570796326795
  9
$LOFTMAG1
 40
0.0
  9
$LOFTMAG2
 40
0.0
  9
$LOFTPARAM
 70
7
  9
$LOFTNORMALS
280
1
  9
$LATITUDE
 40
37.795
  9
$LONGITUDE
 40
-122.394
  9
$NORTHDIRECTION
 40
0.0
  9
$TIMEZONE
 70
-8000
  9
$LIGHTGLYPHDISPLAY
280
1
  9
$TILEMODELIGHTSYNCH
280
1
  9
$CMATERIAL
347
20
  9
$SOLIDHIST
280
0
  9
$SHOWHIST
280
1
  9
$DWFFRAME
280
2
  9
$DGNFRAME
280
2
  9
$REALWORLDSCALE
290
1
  9
$INTERFERECOLOR
 62
256
  9
$CSHADOW
280
0
  9
$SHADOWPLANELOCATION
 40
0.0
  0
ENDSEC
  0
SECTION
  2
CLASSES
  0
CLASS
  1
ACDBDICTIONARYWDFLT
  2
AcDbDictionaryWithDefault
  3
ObjectDBX Classes
 90
0
 91
0
280
0
281
0
  0
CLASS
  1
SUN
  2
AcDbSun
  3
SCENEOE
 90
1153
 91
0
280
0
281
0
  0
CLASS
  1
VISUALSTYLE
  2
AcDbVisualStyle
  3
ObjectDBX Classes
 90
4095
 91
0
280
0
281
0
  0
CLASS
  1
MATERIAL
  2
AcDbMaterial
  3
ObjectDBX Classes
 90
1153
 91
0
280
0
281
0
  0
CLASS
  1
SCALE
  2
AcDbScale
  3
ObjectDBX Classes
 90
1153
 91
0
280
0
281
0
  0
CLASS
  1
TABLESTYLE
  2
AcDbTableStyle
  3
ObjectDBX Classes
 90
4095
 91
0
280
0
281
0
  0
CLASS
  1
MLEADERSTYLE
  2
AcDbMLeaderStyle
  3
ACDB_MLEADERSTYLE_CLASS
 90
4095
 91
0
280
0
281
0
  0
CLASS
  1
DICTIONARYVAR
  2
AcDbDictionaryVar
  3
ObjectDBX Classes
 90
0
 91
0
280
0
281
0
  0
CLASS
  1
CELLSTYLEMAP
  2
AcDbCellStyleMap
  3
ObjectDBX Classes
 90
1152
 91
0
280
0
281
0
  0
CLASS
  1
MENTALRAYRENDERSETTINGS
  2
AcDbMentalRayRenderSettings
  3
SCENEOE
 90
1024
 91
0
280
0
281
0
  0
CLASS
  1
ACDBDETAILVIEWSTYLE
  2
AcDbDetailViewStyle
  3
ObjectDBX Classes
 90
1025
 91
0
280
0
281
0
  0
CLASS
  1
ACDBSECTIONVIEWSTYLE
  2
AcDbSectionViewStyle
  3
ObjectDBX Classes
 90
1025
 91
0
280
0
281
0
  0
CLASS
  1
RASTERVARIABLES
  2
AcDbRasterVariables
  3
ISM
 90
0
 91
0
280
0
281
0
  0
CLASS
  1
LAYOUT
  2
AcDbLayout
  3
ObjectDBX Classes
 90
0
 91
0
280
0
281
0
  0
CLASS
  1
ACDBPLACEHOLDER
  2
AcDbPlaceHolder
  3
ObjectDBX Classes
 90
0
 91
0
280
0
281
0
  0
ENDSEC
  0
SECTION
  2
TABLES
  0
TABLE
  2
VPORT
  5
8
330
0
100
AcDbSymbolTable
 70
1
  0
VPORT
  5
23
330
8
100
AcDbSymbolTableRecord
100
AcDbViewportTableRecord
  2
*Active
 70
0
 10
0.0
 20
0.0
 11
1.0
 21
1.0
 12
0.0
 22
0.0
 13
0.0
 23
0.0
 14
0.5
 24
0.5
 15
0.5
 25
0.5
 16
0.0
 26
0.0
 36
1.0
 17
0.0
 27
0.0
 37
0.0
 40
1000.0
 41
1.34
 42
50.0
 43
0.0
 44
0.0
 50
0.0
 51
0.0
 71
0
 72
1000
 73
1
 74
3
 75
0
 76
0
 77
0
 78
0
281
0
 65
0
146
0.0
  0
ENDTAB
  0
TABLE
  2
LTYPE
  5
2
330
0
100
AcDbSymbolTable
 70
3
  0
LTYPE
  5
24
330
2
100
AcDbSymbolTableRecord
100
AcDbLinetypeTableRecord
  2
ByBlock
 70
0
  3

 72
65
 73
0
 40
0.0
  0
LTYPE
  5
25
330
2
100
AcDbSymbolTableRecord
100
AcDbLinetypeTableRecord
  2
ByLayer
 70
0
  3

 72
65
 73
0
 40
0.0
  0
LTYPE
  5
26
330
2
100
AcDbSymbolTableRecord
100
AcDbLinetypeTableRecord
  2
Continuous
 70
0
  3

 72
65
 73
0
 40
0.0
  0
ENDTAB
  0
TABLE
  2
LAYER
  5
1
330
0
100
AcDbSymbolTable
 70
5
  0
LAYER
  5
27
330
1
100
AcDbSymbolTableRecord
100
AcDbLayerTableRecord
  2
0
 70
0
 62
7
  6
Continuous
370
-3
390
13
347
21
  0
LAYER
  5
28
330
1
100
AcDbSymbolTableRecord
100
AcDbLayerTableRecord
  2
Defpoints
 70
0
 62
7
  6
Continuous
290
0
370
-3
390
13
347
21
  0
LAYER
  5
2F
330
1
100
AcDbSymbolTableRecord
100
AcDbLayerTableRecord
  2
contour
 70
0
 62
5
  6
Continuous
370
-3
390
13
347
21
  0
LAYER
  5
30
330
1
100
AcDbSymbolTableRecord
100
AcDbLayerTableRecord
  2
alesage_excentrique
 70
0
 62
3
  6
Continuous
370
-3
390
13
347
21
  0
LAYER
  5
31
330
1
100
AcDbSymbolTableRecord
100
AcDbLayerTableRecord
  2
alesage_tourillon
 70
0
 62
1
  6
Continuous
370
-3
390
13
347
21
  0
ENDTAB
  0
TABLE
  2
STYLE
  5
5
330
0
100
AcDbSymbolTable
 70
1
  0
STYLE
  5
29
330
5
100
AcDbSymbolTableRecord
100
AcDbTextStyleTableRecord
  2
Standard
 70
0
 40
0.0
 41
1.0
 50
0.0
 71
0
 42
2.5
  3
txt
  4

  0
ENDTAB
  0
TABLE
  2
VIEW
  5
7
330
0
100
AcDbSymbolTable
 70
0
  0
ENDTAB
  0
TABLE
  2
UCS
  5
6
330
0
100
AcDbSymbolTable
 70
0
  0
ENDTAB
  0
TABLE
  2
APPID
  5
3
330
0
100
AcDbSymbolTable
 70
3
  0
APPID
  5
2A
330
3
100
AcDbSymbolTableRecord
100
AcDbRegAppTableRecord
  2
ACAD
 70
0
  0
APPID
  5
154
330
3
100
AcDbSymbolTableRecord
100
AcDbRegAppTableRecord
  2
HATCHBACKGROUNDCOLOR
 70
0
  0
APPID
  5
155
330
3
100
AcDbSymbolTableRecord
100
AcDbRegAppTableRecord
  2
EZDXF
 70
0
  0
ENDTAB
  0
TABLE
  2
DIMSTYLE
  5
4
330
0
100
AcDbSymbolTable
 70
1
100
AcDbDimStyleTable
  0
DIMSTYLE
105
2B
330
4
100
AcDbSymbolTableRecord
100
AcDbDimStyleTableRecord
  2
Standard
 70
0
 40
1.0
 41
2.5
 42
0.625
 43
3.75
 44
1.25
 45
0.0
 46
0.0
 47
0.0
 48
0.0
 49
2.5
140
2.5
141
2.5
142
0.0
143
0.03937007874
144
1.0
145
0.0
146
1.0
147
0.625
148
0.0
 69
0
 70
0
 71
0
 72
0
 73
0
 74
0
 75
0
 76
0
 77
1
 78
8
 79
3
170
0
171
3
172
1
173
0
174
0
175
0
176
0
177
0
178
0
179
2
271
2
272
2
273
2
274
3
275
0
276
0
277
2
278
44
279
0
280
0
281
0
282
0
283
0
284
8
285
0
286
0
288
0
289
3
290
0
371
-2
372
-2
  0
ENDTAB
  0
TABLE
  2
BLOCK_RECORD
  5
9
330
0
100
AcDbSymbolTable
 70
2
  0
BLOCK_RECORD
  5
17
330
9
100
AcDbSymbolTableRecord
100
AcDbBlockTableRecord
  2
*Model_Space
340
1A
 70
0
280
1
281
0
  0
BLOCK_RECORD
  5
1B
330
9
100
AcDbSymbolTableRecord
100
AcDbBlockTableRecord
  2
*Paper_Space
340
1E
 70
0
280
1
281
0
  0
ENDTAB
  0
ENDSEC
  0
SECTION
  2
BLOCKS
  0
BLOCK
  5
18
330
17
100
AcDbEntity
  8
0
100
AcDbBlockBegin
  2
*Model_Space
 70
0
 10
0.0
 20
0.0
 30
0.0
  3
*Model_Space
  1

  0
ENDBLK
  5
19
330
17
100
AcDbEntity
  8
0
100
AcDbBlockEnd
  0
BLOCK
  5
1C
330
1B
100
AcDbEntity
  8
0
100
AcDbBlockBegin
  2
*Paper_Space
 70
0
 10
0.0
 20
0.0
 30
0.0
  3
*Paper_Space
  1

  0
ENDBLK
  5
1D
330
1B
100
AcDbEntity
  8
0
100
AcDbBlockEnd
  0
ENDSEC
  0
SECTION
  2
ENTITIES
  0
LWPOLYLINE
  5
32
330
17
100
AcDbEntity
  8
contour
100
AcDbPolyline
 90
4
 70
1
 10
2.44
 20
0.0
 10
2.44
 20
0.47
 10
0.0
 20
0.47
 10
0.0
 20
0.0
  0
CIRCLE
  5
33
330
17
100
AcDbEntity
  8
alesage_tourillon
100
AcDbCircle
 10
0.009500000000000064
 20
0.05
 30
0.0
 40
0.003
  0
CIRCLE
  5
34
330
17
100
AcDbEntity
  8
alesage_tourillon
100
AcDbCircle
 10
0.009500000000000064
 20
0.42
 30
0.0
 40
0.003
  0
CIRCLE
  5
35
330
17
100
AcDbEntity
  8
alesage_tourillon
100
AcDbCircle
 10
2.39
 20
0.05
 30
0.0
 40
0.003
  0
CIRCLE
  5
36
330
17
100
AcDbEntity
  8
alesage_tourillon
100
AcDbCircle
 10
2.39
 20
0.401
 30
0.0
 40
0.003
  0
CIRCLE
  5
37
330
17
100
AcDbEntity
  8
alesage_tourillon
100
AcDbCircle
 10
2.41975
 20
0.4415
 30
0.0
 40
0.003
  0
CIRCLE
  5
38
330
17
100
AcDbEntity
  8
alesage_tourillon
100
AcDbCircle
 10
0.06899999999999995
 20
0.0095
 30
0.0
 40
0.003
  0
CIRCLE
  5
39
330
17
100
AcDbEntity
  8
alesage_tourillon
100
AcDbCircle
 10
2.3305
 20
0.0095
 30
0.0
 40
0.003
  0
CIRCLE
  5
3A
330
17
100
AcDbEntity
  8
alesage_tourillon
100
AcDbCircle
 10
1.790125
 20
0.069
 30
0.0
 40
0.003
  0
CIRCLE
  5
3B
330
17
100
AcDbEntity
  8
alesage_tourillon
100
AcDbCircle
 10
1.790125
 20
0.382
 30
0.0
 40
0.003
  0
CIRCLE
  5
3C
330
17
100
AcDbEntity
  8
alesage_tourillon
100
AcDbCircle
 10
1.1997499999999999
 20
0.069
 30
0.0
 40
0.003
  0
CIRCLE
  5
3D
330
17
100
AcDbEntity
  8
alesage_tourillon
100
AcDbCircle
 10
1.1997499999999999
 20
0.382
 30
0.0
 40
0.003
  0
CIRCLE
  5
3E
330
17
100
AcDbEntity
  8
alesage_tourillon
100
AcDbCircle
 10
0.609375
 20
0.069
 30
0.0
 40
0.003
  0
CIRCLE
  5
3F
330
17
100
AcDbEntity
  8
alesage_tourillon
100
AcDbCircle
 10
0.609375
 20
0.382
 30
0.0
 40
0.003
  0
LWPOLYLINE
  5
40
330
17
100
AcDbEntity
  8
contour
100
AcDbPolyline
 90
4
 70
1
 10
2.54
 20
0.0
 10
2.54
 20
0.47
 10
4.98
 20
0.47
 10
4.98
 20
0.0
  0
CIRCLE
  5
41
330
17
100
AcDbEntity
  8
alesage_tourillon
100
AcDbCircle
 10
4.9704999999999995
 20
0.05
 30
0.0
 40
0.003
  0
CIRCLE
  5
42
330
17
100
AcDbEntity
  8
alesage_tourillon
100
AcDbCircle
 10
4.9704999999999995
 20
0.42
 30
0.0
 40
0.003
  0
CIRCLE
  5
43
330
17
100
AcDbEntity
  8
alesage_tourillon
100
AcDbCircle
 10
2.59
 20
0.05
 30
0.0
 40
0.003
  0
CIRCLE
  5
44
330
17
100
AcDbEntity
  8
alesage_tourillon
100
AcDbCircle
 10
2.59
 20
0.401
 30
0.0
 40
0.003
  0
CIRCLE
  5
45
330
17
100
AcDbEntity
  8
alesage_tourillon
100
AcDbCircle
 10
2.56025
 20
0.4415
 30
0.0
 40
0.003
  0
CIRCLE
  5
46
330
17
100
AcDbEntity
  8
alesage_tourillon
100
AcDbCircle
 10
4.911
 20
0.0095
 30
0.0
 40
0.003
  0
CIRCLE
  5
47
330
17
100
AcDbEntity
  8
alesage_tourillon
100
AcDbCircle
 10
2.6495
 20
0.0095
 30
0.0
 40
0.003
  0
CIRCLE
  5
48
330
17
100
AcDbEntity
  8
alesage_tourillon
100
AcDbCircle
 10
3.0718
 20
0.069
 30
0.0
 40
0.003
  0
CIRCLE
  5
49
330
17
100
AcDbEntity
  8
alesage_tourillon
100
AcDbCircle
 10
3.0718
 20
0.382
 30
0.0
 40
0.003
  0
CIRCLE
  5
4A
330
17
100
AcDbEntity
  8
alesage_tourillon
100
AcDbCircle
 10
3.5441000000000003
 20
0.069
 30
0.0
 40
0.003
  0
CIRCLE
  5
4B
330
17
100
AcDbEntity
  8
alesage_tourillon
100
AcDbCircle
 10
3.5441000000000003
 20
0.382
 30
0.0
 40
0.003
  0
CIRCLE
  5
4C
330
17
100
AcDbEntity
  8
alesage_tourillon
100
AcDbCircle
 10
4.0164
 20
0.069
 30
0.0
 40
0.003
  0
CIRCLE
  5
4D
330
17
100
AcDbEntity
  8
alesage_tourillon
100
AcDbCircle
 10
4.0164
 20
0.382
 30
0.0
 40
0.003
  0
CIRCLE
  5
4E
330
17
100
AcDbEntity
  8
alesage_tourillon
100
AcDbCircle
 10
4.488700000000001
 20
0.069
 30
0.0
 40
0.003
  0
CIRCLE
  5
4F
330
17
100
AcDbEntity
  8
alesage_tourillon
100
AcDbCircle
 10
4.488700000000001
 20
0.382
 30
0.0
 40
0.003
  0
LWPOLYLINE
  5
50
330
17
100
AcDbEntity
  8
contour
100
AcDbPolyline
 90
4
 70
1
 10
8.31
 20
0.0
 10
8.31
 20
0.47
 10
5.08
 20
0.47
 10
5.08
 20
0.0
  0
CIRCLE
  5
51
330
17
100
AcDbEntity
  8
alesage_excentrique
100
AcDbCircle
 10
8.276
 20
0.05
 30
0.0
 40
0.008
  0
CIRCLE
  5
52
330
17
100
AcDbEntity
  8
alesage_excentrique
100
AcDbCircle
 10
8.276
 20
0.42
 30
0.0
 40
0.008
  0
CIRCLE
  5
53
330
17
100
AcDbEntity
  8
alesage_excentrique
100
AcDbCircle
 10
5.114
 20
0.05
 30
0.0
 40
0.008
  0
CIRCLE
  5
54
330
17
100
AcDbEntity
  8
alesage_excentrique
100
AcDbCircle
 10
5.114
 20
0.42
 30
0.0
 40
0.008
  0
CIRCLE
  5
55
330
17
100
AcDbEntity
  8
alesage_tourillon
100
AcDbCircle
 10
5.726
 20
0.05
 30
0.0
 40
0.003
  0
CIRCLE
  5
56
330
17
100
AcDbEntity
  8
alesage_tourillon
100
AcDbCircle
 10
5.726
 20
0.401
 30
0.0
 40
0.003
  0
CIRCLE
  5
57
330
17
100
AcDbEntity
  8
alesage_tourillon
100
AcDbCircle
 10
6.372
 20
0.05
 30
0.0
 40
0.003
  0
CIRCLE
  5
58
330
17
100
AcDbEntity
  8
alesage_tourillon
100
AcDbCircle
 10
6.372
 20
0.401
 30
0.0
 40
0.003
  0
CIRCLE
  5
59
330
17
100
AcDbEntity
  8
alesage_tourillon
100
AcDbCircle
 10
7.018000000000001
 20
0.05
 30
0.0
 40
0.003
  0
CIRCLE
  5
5A
330
17
100
AcDbEntity
  8
alesage_tourillon
100
AcDbCircle
 10
7.018000000000001
 20
0.401
 30
0.0
 40
0.003
  0
CIRCLE
  5
5B
330
17
100
AcDbEntity
  8
alesage_tourillon
100
AcDbCircle
 10
7.664000000000001
 20
0.05
 30
0.0
 40
0.003
  0
CIRCLE
  5
5C
330
17
100
AcDbEntity
  8
alesage_tourillon
100
AcDbCircle
 10
7.664000000000001
 20
0.401
 30
0.0
 40
0.003
  0
CIRCLE
  5
5D
330
17
100
AcDbEntity
  8
alesage_tourillon
100
AcDbCircle
 10
5.13
 20
0.0095
 30
0.0
 40
0.003
  0
CIRCLE
  5
5E
330
17
100
AcDbEntity
  8
alesage_tourillon
100
AcDbCircle
 10
5.6665
 20
0.0095
 30
0.0
 40
0.003
  0
CIRCLE
  5
5F
330
17
100
AcDbEntity
  8
alesage_tourillon
100
AcDbCircle
 10
5.7855
 20
0.0095
 30
0.0
 40
0.003
  0
CIRCLE
  5
60
330
17
100
AcDbEntity
  8
alesage_tourillon
100
AcDbCircle
 10
6.3125
 20
0.0095
 30
0.0
 40
0.003
  0
CIRCLE
  5
61
330
17
100
AcDbEntity
  8
alesage_tourillon
100
AcDbCircle
 10
6.4315
 20
0.0095
 30
0.0
 40
0.003
  0
CIRCLE
  5
62
330
17
100
AcDbEntity
  8
alesage_tourillon
100
AcDbCircle
 10
6.958500000000001
 20
0.0095
 30
0.0
 40
0.003
  0
CIRCLE
  5
63
330
17
100
AcDbEntity
  8
alesage_tourillon
100
AcDbCircle
 10
7.077500000000001
 20
0.0095
 30
0.0
 40
0.003
  0
CIRCLE
  5
64
330
17
100
AcDbEntity
  8
alesage_tourillon
100
AcDbCircle
 10
7.6045
 20
0.0095
 30
0.0
 40
0.003
  0
CIRCLE
  5
65
330
17
100
AcDbEntity
  8
alesage_tourillon
100
AcDbCircle
 10
8.26
 20
0.0095
 30
0.0
 40
0.003
  0
CIRCLE
  5
66
330
17
100
AcDbEntity
  8
alesage_tourillon
100
AcDbCircle
 10
7.7235000000000005
 20
0.0095
 30
0.0
 40
0.003
  0
CIRCLE
  5
67
330
17
100
AcDbEntity
  8
alesage_tourillon
100
AcDbCircle
 10
10.781
 20
0.05
 30
0.0
 40
0.003
  0
CIRCLE
  5
68
330
17
100
AcDbEntity
  8
alesage_tourillon
100
AcDbCircle
 10
10.781
 20
0.401
 30
0.0
 40
0.003
  0
CIRCLE
  5
69
330
17
100
AcDbEntity
  8
alesage_tourillon
100
AcDbCircle
 10
10.81075
 20
0.4415
 30
0.0
 40
0.003
  0
CIRCLE
  5
6A
330
17
100
AcDbEntity
  8
alesage_tourillon
100
AcDbCircle
 10
8.46
 20
0.0095
 30
0.0
 40
0.003
  0
CIRCLE
  5
6B
330
17
100
AcDbEntity
  8
alesage_tourillon
100
AcDbCircle
 10
10.721499999999999
 20
0.0095
 30
0.0
 40
0.003
  0
CIRCLE
  5
6C
330
17
100
AcDbEntity
  8
alesage_tourillon
100
AcDbCircle
 10
10.53535
 20
0.069
 30
0.0
 40
0.003
  0
CIRCLE
  5
6D
330
17
100
AcDbEntity
  8
alesage_tourillon
100
AcDbCircle
 10
10.53535
 20
0.382
 30
0.0
 40
0.003
  0
CIRCLE
  5
6E
330
17
100
AcDbEntity
  8
alesage_tourillon
100
AcDbCircle
 10
9.11845
 20
0.069
 30
0.0
 40
0.003
  0
CIRCLE
  5
6F
330
17
100
AcDbEntity
  8
alesage_tourillon
100
AcDbCircle
 10
9.11845
 20
0.382
 30
0.0
 40
0.003
  0
CIRCLE
  5
70
330
17
100
AcDbEntity
  8
alesage_tourillon
100
AcDbCircle
 10
8.764225
 20
0.069
 30
0.0
 40
0.003
  0
CIRCLE
  5
71
330
17
100
AcDbEntity
  8
alesage_tourillon
100
AcDbCircle
 10
8.764225
 20
0.382
 30
0.0
 40
0.003
  0
LWPOLYLINE
  5
72
330
17
100
AcDbEntity
  8
contour
100
AcDbPolyline
 90
4
 70
1
 10
10.831
 20
0.0
 10
8.41
 20
0.0
 10
8.41
 20
0.451
 10
10.831
 20
0.451
  0
CIRCLE
  5
73
330
17
100
AcDbEntity
  8
alesage_excentrique
100
AcDbCircle
 10
8.443999999999999
 20
0.05
 30
0.0
 40
0.008
  0
CIRCLE
  5
74
330
17
100
AcDbEntity
  8
alesage_excentrique
100
AcDbCircle
 10
8.443999999999999
 20
0.401
 30
0.0
 40
0.008
  0
CIRCLE
  5
75
330
17
100
AcDbEntity
  8
alesage_tourillon
100
AcDbCircle
 10
10.781
 20
0.05
 30
0.0
 40
0.003
  0
CIRCLE
  5
76
330
17
100
AcDbEntity
  8
alesage_tourillon
100
AcDbCircle
 10
10.781
 20
0.401
 30
0.0
 40
0.003
  0
CIRCLE
  5
77
330
17
100
AcDbEntity
  8
alesage_tourillon
100
AcDbCircle
 10
10.81075
 20
0.4415
 30
0.0
 40
0.003
  0
CIRCLE
  5
78
330
17
100
AcDbEntity
  8
alesage_tourillon
100
AcDbCircle
 10
8.46
 20
0.0095
 30
0.0
 40
0.003
  0
CIRCLE
  5
79
330
17
100
AcDbEntity
  8
alesage_tourillon
100
AcDbCircle
 10
10.721499999999999
 20
0.0095
 30
0.0
 40
0.003
  0
CIRCLE
  5
7A
330
17
100
AcDbEntity
  8
alesage_tourillon
100
AcDbCircle
 10
10.299199999999999
 20
0.069
 30
0.0
 40
0.003
  0
CIRCLE
  5
7B
330
17
100
AcDbEntity
  8
alesage_tourillon
100
AcDbCircle
 10
10.299199999999999
 20
0.382
 30
0.0
 40
0.003
  0
CIRCLE
  5
7C
330
17
100
AcDbEntity
  8
alesage_tourillon
100
AcDbCircle
 10
9.8269
 20
0.069
 30
0.0
 40
0.003
  0
CIRCLE
  5
7D
330
17
100
AcDbEntity
  8
alesage_tourillon
100
AcDbCircle
 10
9.8269
 20
0.382
 30
0.0
 40
0.003
  0
CIRCLE
  5
7E
330
17
100
AcDbEntity
  8
alesage_tourillon
100
AcDbCircle
 10
9.3546
 20
0.069
 30
0.0
 40
0.003
  0
CIRCLE
  5
7F
330
17
100
AcDbEntity
  8
alesage_tourillon
100
AcDbCircle
 10
9.3546
 20
0.382
 30
0.0
 40
0.003
  0
CIRCLE
  5
80
330
17
100
AcDbEntity
  8
alesage_tourillon
100
AcDbCircle
 10
8.882299999999999
 20
0.069
 30
0.0
 40
0.003
  0
CIRCLE
  5
81
330
17
100
AcDbEntity
  8
alesage_tourillon
100
AcDbCircle
 10
8.882299999999999
 20
0.382
 30
0.0
 40
0.003
  0
CIRCLE
  5
82
330
17
100
AcDbEntity
  8
alesage_tourillon
100
AcDbCircle
 10
13.302
 20
0.05
 30
0.0
 40
0.003
  0
CIRCLE
  5
83
330
17
100
AcDbEntity
  8
alesage_tourillon
100
AcDbCircle
 10
13.302
 20
0.401
 30
0.0
 40
0.003
  0
CIRCLE
  5
84
330
17
100
AcDbEntity
  8
alesage_tourillon
100
AcDbCircle
 10
13.33175
 20
0.4415
 30
0.0
 40
0.003
  0
CIRCLE
  5
85
330
17
100
AcDbEntity
  8
alesage_tourillon
100
AcDbCircle
 10
10.980999999999998
 20
0.0095
 30
0.0
 40
0.003
  0
CIRCLE
  5
86
330
17
100
AcDbEntity
  8
alesage_tourillon
100
AcDbCircle
 10
13.2425
 20
0.0095
 30
0.0
 40
0.003
  0
CIRCLE
  5
87
330
17
100
AcDbEntity
  8
alesage_tourillon
100
AcDbCircle
 10
12.8202
 20
0.069
 30
0.0
 40
0.003
  0
CIRCLE
  5
88
330
17
100
AcDbEntity
  8
alesage_tourillon
100
AcDbCircle
 10
12.8202
 20
0.382
 30
0.0
 40
0.003
  0
CIRCLE
  5
89
330
17
100
AcDbEntity
  8
alesage_tourillon
100
AcDbCircle
 10
12.3479
 20
0.069
 30
0.0
 40
0.003
  0
CIRCLE
  5
8A
330
17
100
AcDbEntity
  8
alesage_tourillon
100
AcDbCircle
 10
12.3479
 20
0.382
 30
0.0
 40
0.003
  0
CIRCLE
  5
8B
330
17
100
AcDbEntity
  8
alesage_tourillon
100
AcDbCircle
 10
11.875599999999999
 20
0.069
 30
0.0
 40
0.003
  0
CIRCLE
  5
8C
330
17
100
AcDbEntity
  8
alesage_tourillon
100
AcDbCircle
 10
11.875599999999999
 20
0.382
 30
0.0
 40
0.003
  0
CIRCLE
  5
8D
330
17
100
AcDbEntity
  8
alesage_tourillon
100
AcDbCircle
 10
11.403299999999998
 20
0.069
 30
0.0
 40
0.003
  0
CIRCLE
  5
8E
330
17
100
AcDbEntity
  8
alesage_tourillon
100
AcDbCircle
 10
11.403299999999998
 20
0.382
 30
0.0
 40
0.003
  0
LWPOLYLINE
  5
8F
330
17
100
AcDbEntity
  8
contour
100
AcDbPolyline
 90
4
 70
1
 10
13.351999999999999
 20
0.0
 10
10.931
 20
0.0
 10
10.931
 20
0.451
 10
13.351999999999999
 20
0.451
  0
CIRCLE
  5
90
330
17
100
AcDbEntity
  8
alesage_excentrique
100
AcDbCircle
 10
10.965
 20
0.05
 30
0.0
 40
0.008
  0
CIRCLE
  5
91
330
17
100
AcDbEntity
  8
alesage_excentrique
100
AcDbCircle
 10
10.965
 20
0.401
 30
0.0
 40
0.008
  0
CIRCLE
  5
92
330
17
100
AcDbEntity
  8
alesage_tourillon
100
AcDbCircle
 10
13.302
 20
0.05
 30
0.0
 40
0.003
  0
CIRCLE
  5
93
330
17
100
AcDbEntity
  8
alesage_tourillon
100
AcDbCircle
 10
13.302
 20
0.401
 30
0.0
 40
0.003
  0
CIRCLE
  5
94
330
17
100
AcDbEntity
  8
alesage_tourillon
100
AcDbCircle
 10
13.33175
 20
0.4415
 30
0.0
 40
0.003
  0
CIRCLE
  5
95
330
17
100
AcDbEntity
  8
alesage_tourillon
100
AcDbCircle
 10
10.980999999999998
 20
0.0095
 30
0.0
 40
0.003
  0
CIRCLE
  5
96
330
17
100
AcDbEntity
  8
alesage_tourillon
100
AcDbCircle
 10
13.2425
 20
0.0095
 30
0.0
 40
0.003
  0
CIRCLE
  5
97
330
17
100
AcDbEntity
  8
alesage_tourillon
100
AcDbCircle
 10
13.056349999999998
 20
0.069
 30
0.0
 40
0.003
  0
CIRCLE
  5
98
330
17
100
AcDbEntity
  8
alesage_tourillon
100
AcDbCircle
 10
13.056349999999998
 20
0.382
 30
0.0
 40
0.003
  0
CIRCLE
  5
99
330
17
100
AcDbEntity
  8
alesage_tourillon
100
AcDbCircle
 10
11.63945
 20
0.069
 30
0.0
 40
0.003
  0
CIRCLE
  5
9A
330
17
100
AcDbEntity
  8
alesage_tourillon
100
AcDbCircle
 10
11.63945
 20
0.382
 30
0.0
 40
0.003
  0
CIRCLE
  5
9B
330
17
100
AcDbEntity
  8
alesage_tourillon
100
AcDbCircle
 10
11.285224999999999
 20
0.069
 30
0.0
 40
0.003
  0
CIRCLE
  5
9C
330
17
100
AcDbEntity
  8
alesage_tourillon
100
AcDbCircle
 10
11.285224999999999
 20
0.382
 30
0.0
 40
0.003
  0
CIRCLE
  5
9D
330
17
100
AcDbEntity
  8
alesage_tourillon
100
AcDbCircle
 10
15.822999999999999
 20
0.05
 30
0.0
 40
0.003
  0
CIRCLE
  5
9E
330
17
100
AcDbEntity
  8
alesage_tourillon
100
AcDbCircle
 10
15.822999999999999
 20
0.401
 30
0.0
 40
0.003
  0
CIRCLE
  5
9F
330
17
100
AcDbEntity
  8
alesage_tourillon
100
AcDbCircle
 10
15.852749999999999
 20
0.4415
 30
0.0
 40
0.003
  0
CIRCLE
  5
A0
330
17
100
AcDbEntity
  8
alesage_tourillon
100
AcDbCircle
 10
13.501999999999999
 20
0.0095
 30
0.0
 40
0.003
  0
CIRCLE
  5
A1
330
17
100
AcDbEntity
  8
alesage_tourillon
100
AcDbCircle
 10
15.763499999999997
 20
0.0095
 30
0.0
 40
0.003
  0
CIRCLE
  5
A2
330
17
100
AcDbEntity
  8
alesage_tourillon
100
AcDbCircle
 10
15.577349999999997
 20
0.069
 30
0.0
 40
0.003
  0
CIRCLE
  5
A3
330
17
100
AcDbEntity
  8
alesage_tourillon
100
AcDbCircle
 10
15.577349999999997
 20
0.382
 30
0.0
 40
0.003
  0
CIRCLE
  5
A4
330
17
100
AcDbEntity
  8
alesage_tourillon
100
AcDbCircle
 10
14.160449999999997
 20
0.069
 30
0.0
 40
0.003
  0
CIRCLE
  5
A5
330
17
100
AcDbEntity
  8
alesage_tourillon
100
AcDbCircle
 10
14.160449999999997
 20
0.382
 30
0.0
 40
0.003
  0
CIRCLE
  5
A6
330
17
100
AcDbEntity
  8
alesage_tourillon
100
AcDbCircle
 10
13.806224999999998
 20
0.069
 30
0.0
 40
0.003
  0
CIRCLE
  5
A7
330
17
100
AcDbEntity
  8
alesage_tourillon
100
AcDbCircle
 10
13.806224999999998
 20
0.382
 30
0.0
 40
0.003
  0
LWPOLYLINE
  5
A8
330
17
100
AcDbEntity
  8
contour
100
AcDbPolyline
 90
4
 70
1
 10
15.872999999999998
 20
0.0
 10
13.451999999999998
 20
0.0
 10
13.451999999999998
 20
0.451
 10
15.872999999999998
 20
0.451
  0
CIRCLE
  5
A9
330
17
100
AcDbEntity
  8
alesage_excentrique
100
AcDbCircle
 10
13.485999999999997
 20
0.05
 30
0.0
 40
0.008
  0
CIRCLE
  5
AA
330
17
100
AcDbEntity
  8
alesage_excentrique
100
AcDbCircle
 10
13.485999999999997
 20
0.401
 30
0.0
 40
0.008
  0
CIRCLE
  5
AB
330
17
100
AcDbEntity
  8
alesage_tourillon
100
AcDbCircle
 10
15.822999999999999
 20
0.05
 30
0.0
 40
0.003
  0
CIRCLE
  5
AC
330
17
100
AcDbEntity
  8
alesage_tourillon
100
AcDbCircle
 10
15.822999999999999
 20
0.401
 30
0.0
 40
0.003
  0
CIRCLE
  5
AD
330
17
100
AcDbEntity
  8
alesage_tourillon
100
AcDbCircle
 10
15.852749999999999
 20
0.4415
 30
0.0
 40
0.003
  0
CIRCLE
  5
AE
330
17
100
AcDbEntity
  8
alesage_tourillon
100
AcDbCircle
 10
13.501999999999999
 20
0.0095
 30
0.0
 40
0.003
  0
CIRCLE
  5
AF
330
17
100
AcDbEntity
  8
alesage_tourillon
100
AcDbCircle
 10
15.763499999999997
 20
0.0095
 30
0.0
 40
0.003
  0
CIRCLE
  5
B0
330
17
100
AcDbEntity
  8
alesage_tourillon
100
AcDbCircle
 10
15.341199999999997
 20
0.069
 30
0.0
 40
0.003
  0
CIRCLE
  5
B1
330
17
100
AcDbEntity
  8
alesage_tourillon
100
AcDbCircle
 10
15.341199999999997
 20
0.382
 30
0.0
 40
0.003
  0
CIRCLE
  5
B2
330
17
100
AcDbEntity
  8
alesage_tourillon
100
AcDbCircle
 10
14.868899999999998
 20
0.069
 30
0.0
 40
0.003
  0
CIRCLE
  5
B3
330
17
100
AcDbEntity
  8
alesage_tourillon
100
AcDbCircle
 10
14.868899999999998
 20
0.382
 30
0.0
 40
0.003
  0
CIRCLE
  5
B4
330
17
100
AcDbEntity
  8
alesage_tourillon
100
AcDbCircle
 10
14.396599999999998
 20
0.069
 30
0.0
 40
0.003
  0
CIRCLE
  5
B5
330
17
100
AcDbEntity
  8
alesage_tourillon
100
AcDbCircle
 10
14.396599999999998
 20
0.382
 30
0.0
 40
0.003
  0
CIRCLE
  5
B6
330
17
100
AcDbEntity
  8
alesage_tourillon
100
AcDbCircle
 10
13.924299999999997
 20
0.069
 30
0.0
 40
0.003
  0
CIRCLE
  5
B7
330
17
100
AcDbEntity
  8
alesage_tourillon
100
AcDbCircle
 10
13.924299999999997
 20
0.382
 30
0.0
 40
0.003
  0
CIRCLE
  5
B8
330
17
100
AcDbEntity
  8
alesage_tourillon
100
AcDbCircle
 10
18.343999999999998
 20
0.05
 30
0.0
 40
0.003
  0
CIRCLE
  5
B9
330
17
100
AcDbEntity
  8
alesage_tourillon
100
AcDbCircle
 10
18.343999999999998
 20
0.401
 30
0.0
 40
0.003
  0
CIRCLE
  5
BA
330
17
100
AcDbEntity
  8
alesage_tourillon
100
AcDbCircle
 10
18.373749999999998
 20
0.4415
 30
0.0
 40
0.003
  0
CIRCLE
  5
BB
330
17
100
AcDbEntity
  8
alesage_tourillon
100
AcDbCircle
 10
16.022999999999996
 20
0.0095
 30
0.0
 40
0.003
  0
CIRCLE
  5
BC
330
17
100
AcDbEntity
  8
alesage_tourillon
100
AcDbCircle
 10
18.284499999999998
 20
0.0095
 30
0.0
 40
0.003
  0
CIRCLE
  5
BD
330
17
100
AcDbEntity
  8
alesage_tourillon
100
AcDbCircle
 10
17.744124999999997
 20
0.069
 30
0.0
 40
0.003
  0
CIRCLE
  5
BE
330
17
100
AcDbEntity
  8
alesage_tourillon
100
AcDbCircle
 10
17.744124999999997
 20
0.382
 30
0.0
 40
0.003
  0
CIRCLE
  5
BF
330
17
100
AcDbEntity
  8
alesage_tourillon
100
AcDbCircle
 10
17.153749999999995
 20
0.069
 30
0.0
 40
0.003
  0
CIRCLE
  5
C0
330
17
100
AcDbEntity
  8
alesage_tourillon
100
AcDbCircle
 10
17.153749999999995
 20
0.382
 30
0.0
 40
0.003
  0
CIRCLE
  5
C1
330
17
100
AcDbEntity
  8
alesage_tourillon
100
AcDbCircle
 10
16.563374999999997
 20
0.069
 30
0.0
 40
0.003
  0
CIRCLE
  5
C2
330
17
100
AcDbEntity
  8
alesage_tourillon
100
AcDbCircle
 10
16.563374999999997
 20
0.382
 30
0.0
 40
0.003
  0
LWPOLYLINE
  5
C3
330
17
100
AcDbEntity
  8
contour
100
AcDbPolyline
 90
4
 70
1
 10
18.394
 20
0.0
 10
15.972999999999997
 20
0.0
 10
15.972999999999997
 20
0.451
 10
18.394
 20
0.451
  0
CIRCLE
  5
C4
330
17
100
AcDbEntity
  8
alesage_excentrique
100
AcDbCircle
 10
16.006999999999998
 20
0.05
 30
0.0
 40
0.008
  0
CIRCLE
  5
C5
330
17
100
AcDbEntity
  8
alesage_excentrique
100
AcDbCircle
 10
16.006999999999998
 20
0.401
 30
0.0
 40
0.008
  0
CIRCLE
  5
C6
330
17
100
AcDbEntity
  8
alesage_tourillon
100
AcDbCircle
 10
18.343999999999998
 20
0.05
 30
0.0
 40
0.003
  0
CIRCLE
  5
C7
330
17
100
AcDbEntity
  8
alesage_tourillon
100
AcDbCircle
 10
18.343999999999998
 20
0.401
 30
0.0
 40
0.003
  0
CIRCLE
  5
C8
330
17
100
AcDbEntity
  8
alesage_tourillon
100
AcDbCircle
 10
18.373749999999998
 20
0.4415
 30
0.0
 40
0.003
  0
CIRCLE
  5
C9
330
17
100
AcDbEntity
  8
alesage_tourillon
100
AcDbCircle
 10
16.022999999999996
 20
0.0095
 30
0.0
 40
0.003
  0
CIRCLE
  5
CA
330
17
100
AcDbEntity
  8
alesage_tourillon
100
AcDbCircle
 10
18.284499999999998
 20
0.0095
 30
0.0
 40
0.003
  0
CIRCLE
  5
CB
330
17
100
AcDbEntity
  8
alesage_tourillon
100
AcDbCircle
 10
18.098349999999996
 20
0.069
 30
0.0
 40
0.003
  0
CIRCLE
  5
CC
330
17
100
AcDbEntity
  8
alesage_tourillon
100
AcDbCircle
 10
18.098349999999996
 20
0.382
 30
0.0
 40
0.003
  0
CIRCLE
  5
CD
330
17
100
AcDbEntity
  8
alesage_tourillon
100
AcDbCircle
 10
16.681449999999998
 20
0.069
 30
0.0
 40
0.003
  0
CIRCLE
  5
CE
330
17
100
AcDbEntity
  8
alesage_tourillon
100
AcDbCircle
 10
16.681449999999998
 20
0.382
 30
0.0
 40
0.003
  0
CIRCLE
  5
CF
330
17
100
AcDbEntity
  8
alesage_tourillon
100
AcDbCircle
 10
16.327225
 20
0.069
 30
0.0
 40
0.003
  0
CIRCLE
  5
D0
330
17
100
AcDbEntity
  8
alesage_tourillon
100
AcDbCircle
 10
16.327225
 20
0.382
 30
0.0
 40
0.003
  0
CIRCLE
  5
D1
330
17
100
AcDbEntity
  8
alesage_tourillon
100
AcDbCircle
 10
18.543999999999997
 20
0.0095
 30
0.0
 40
0.003
  0
CIRCLE
  5
D2
330
17
100
AcDbEntity
  8
alesage_tourillon
100
AcDbCircle
 10
19.080499999999997
 20
0.0095
 30
0.0
 40
0.003
  0
LWPOLYLINE
  5
D3
330
17
100
AcDbEntity
  8
contour
100
AcDbPolyline
 90
4
 70
1
 10
18.493999999999996
 20
0.0
 10
18.493999999999996
 20
0.451
 10
19.130499999999998
 20
0.451
 10
19.130499999999998
 20
0.0
  0
CIRCLE
  5
D4
330
17
100
AcDbEntity
  8
alesage_tourillon
100
AcDbCircle
 10
18.543999999999997
 20
0.4415
 30
0.0
 40
0.003
  0
CIRCLE
  5
D5
330
17
100
AcDbEntity
  8
alesage_tourillon
100
AcDbCircle
 10
19.080499999999997
 20
0.4415
 30
0.0
 40
0.003
  0
LWPOLYLINE
  5
D6
330
17
100
AcDbEntity
  8
contour
100
AcDbPolyline
 90
4
 70
1
 10
19.271
 20
0.6365000000000001
 10
19.271
 20
0.0
 10
19.2305
 20
0.0
 10
19.2305
 20
0.6365000000000001
  0
LWPOLYLINE
  5
D7
330
17
100
AcDbEntity
  8
contour
100
AcDbPolyline
 90
4
 70
1
 10
21.7325
 20
0.6365000000000001
 10
21.7325
 20
0.0
 10
19.371000000000002
 20
0.0
 10
19.371000000000002
 20
0.6365000000000001
  0
CIRCLE
  5
D8
330
17
100
AcDbEntity
  8
alesage_excentrique
100
AcDbCircle
 10
21.6825
 20
0.6025
 30
0.0
 40
0.008
  0
CIRCLE
  5
D9
330
17
100
AcDbEntity
  8
alesage_excentrique
100
AcDbCircle
 10
19.421000000000003
 20
0.6025
 30
0.0
 40
0.008
  0
CIRCLE
  5
DA
330
17
100
AcDbEntity
  8
alesage_excentrique
100
AcDbCircle
 10
21.698500000000003
 20
0.5865
 30
0.0
 40
0.008
  0
CIRCLE
  5
DB
330
17
100
AcDbEntity
  8
alesage_excentrique
100
AcDbCircle
 10
21.698500000000003
 20
0.04999999999999993
 30
0.0
 40
0.008
  0
CIRCLE
  5
DC
330
17
100
AcDbEntity
  8
alesage_excentrique
100
AcDbCircle
 10
21.6825
 20
0.03399999999999992
 30
0.0
 40
0.008
  0
CIRCLE
  5
DD
330
17
100
AcDbEntity
  8
alesage_excentrique
100
AcDbCircle
 10
19.421000000000003
 20
0.03399999999999992
 30
0.0
 40
0.008
  0
CIRCLE
  5
DE
330
17
100
AcDbEntity
  8
alesage_excentrique
100
AcDbCircle
 10
19.405
 20
0.5865
 30
0.0
 40
0.008
  0
CIRCLE
  5
DF
330
17
100
AcDbEntity
  8
alesage_excentrique
100
AcDbCircle
 10
19.405
 20
0.04999999999999993
 30
0.0
 40
0.008
  0
CIRCLE
  5
E0
330
17
100
AcDbEntity
  8
alesage_tourillon
100
AcDbCircle
 10
19.843300000000003
 20
0.5865
 30
0.0
 40
0.003
  0
CIRCLE
  5
E1
330
17
100
AcDbEntity
  8
alesage_tourillon
100
AcDbCircle
 10
19.843300000000003
 20
0.04999999999999993
 30
0.0
 40
0.003
  0
CIRCLE
  5
E2
330
17
100
AcDbEntity
  8
alesage_tourillon
100
AcDbCircle
 10
20.315600000000003
 20
0.5865
 30
0.0
 40
0.003
  0
CIRCLE
  5
E3
330
17
100
AcDbEntity
  8
alesage_tourillon
100
AcDbCircle
 10
20.315600000000003
 20
0.04999999999999993
 30
0.0
 40
0.003
  0
CIRCLE
  5
E4
330
17
100
AcDbEntity
  8
alesage_tourillon
100
AcDbCircle
 10
20.7879
 20
0.5865
 30
0.0
 40
0.003
  0
CIRCLE
  5
E5
330
17
100
AcDbEntity
  8
alesage_tourillon
100
AcDbCircle
 10
20.7879
 20
0.04999999999999993
 30
0.0
 40
0.003
  0
CIRCLE
  5
E6
330
17
100
AcDbEntity
  8
alesage_tourillon
100
AcDbCircle
 10
21.2602
 20
0.5865
 30
0.0
 40
0.003
  0
CIRCLE
  5
E7
330
17
100
AcDbEntity
  8
alesage_tourillon
100
AcDbCircle
 10
21.2602
 20
0.04999999999999993
 30
0.0
 40
0.003
  0
LWPOLYLINE
  5
E8
330
17
100
AcDbEntity
  8
contour
100
AcDbPolyline
 90
4
 70
1
 10
21.832500000000003
 20
0.6305000000000001
 10
21.832500000000003
 20
0.0
 10
24.188000000000002
 20
0.0
 10
24.188000000000002
 20
0.6305000000000001
  0
LWPOLYLINE
  5
E9
330
17
100
AcDbEntity
  8
contour
100
AcDbPolyline
 90
4
 70
1
 10
24.288000000000004
 20
0.0
 10
24.924500000000005
 20
0.0
 10
24.924500000000005
 20
0.413
 10
24.288000000000004
 20
0.413
  0
LWPOLYLINE
  5
EA
330
17
100
AcDbEntity
  8
contour
100
AcDbPolyline
 90
4
 70
1
 10
25.024500000000007
 20
0.0
 10
25.66100000000001
 20
0.0
 10
25.66100000000001
 20
0.413
 10
25.024500000000007
 20
0.413
  0
LWPOLYLINE
  5
EB
330
17
100
AcDbEntity
  8
contour
100
AcDbPolyline
 90
4
 70
1
 10
25.76100000000001
 20
0.0
 10
26.39750000000001
 20
0.0
 10
26.39750000000001
 20
0.413
 10
25.76100000000001
 20
0.413
  0
LWPOLYLINE
  5
EC
330
17
100
AcDbEntity
  8
contour
100
AcDbPolyline
 90
4
 70
1
 10
26.497500000000013
 20
0.0
 10
27.134000000000015
 20
0.0
 10
27.134000000000015
 20
0.413
 10
26.497500000000013
 20
0.413
  0
CIRCLE
  5
ED
330
17
100
AcDbEntity
  8
alesage_tourillon
100
AcDbCircle
 10
27.284000000000017
 20
0.0095
 30
0.0
 40
0.003
  0
CIRCLE
  5
EE
330
17
100
AcDbEntity
  8
alesage_tourillon
100
AcDbCircle
 10
27.811000000000018
 20
0.0095
 30
0.0
 40
0.003
  0
LWPOLYLINE
  5
EF
330
17
100
AcDbEntity
  8
contour
100
AcDbPolyline
 90
4
 70
1
 10
27.234000000000016
 20
0.0
 10
27.234000000000016
 20
0.451
 10
27.861000000000015
 20
0.451
 10
27.861000000000015
 20
0.0
  0
CIRCLE
  5
F0
330
17
100
AcDbEntity
  8
alesage_tourillon
100
AcDbCircle
 10
27.284000000000017
 20
0.4415
 30
0.0
 40
0.003
  0
CIRCLE
  5
F1
330
17
100
AcDbEntity
  8
alesage_tourillon
100
AcDbCircle
 10
27.811000000000018
 20
0.4415
 30
0.0
 40
0.003
  0
LWPOLYLINE
  5
F2
330
17
100
AcDbEntity
  8
contour
100
AcDbPolyline
 90
4
 70
1
 10
28.00150000000002
 20
0.6270000000000003
 10
28.00150000000002
 20
0.0
 10
27.96100000000002
 20
0.0
 10
27.96100000000002
 20
0.6270000000000003
  0
LWPOLYLINE
  5
F3
330
17
100
AcDbEntity
  8
contour
100
AcDbPolyline
 90
4
 70
1
 10
30.463000000000022
 20
0.6270000000000003
 10
30.463000000000022
 20
0.0
 10
28.101500000000023
 20
0.0
 10
28.101500000000023
 20
0.6270000000000003
  0
CIRCLE
  5
F4
330
17
100
AcDbEntity
  8
alesage_excentrique
100
AcDbCircle
 10
30.429000000000023
 20
0.5770000000000003
 30
0.0
 40
0.008
  0
CIRCLE
  5
F5
330
17
100
AcDbEntity
  8
alesage_excentrique
100
AcDbCircle
 10
30.429000000000023
 20
0.050000000000000044
 30
0.0
 40
0.008
  0
CIRCLE
  5
F6
330
17
100
AcDbEntity
  8
alesage_excentrique
100
AcDbCircle
 10
30.41300000000002
 20
0.5930000000000003
 30
0.0
 40
0.008
  0
CIRCLE
  5
F7
330
17
100
AcDbEntity
  8
alesage_excentrique
100
AcDbCircle
 10
28.151500000000024
 20
0.5930000000000003
 30
0.0
 40
0.008
  0
CIRCLE
  5
F8
330
17
100
AcDbEntity
  8
alesage_excentrique
100
AcDbCircle
 10
30.41300000000002
 20
0.03400000000000003
 30
0.0
 40
0.008
  0
CIRCLE
  5
F9
330
17
100
AcDbEntity
  8
alesage_excentrique
100
AcDbCircle
 10
28.151500000000024
 20
0.03400000000000003
 30
0.0
 40
0.008
  0
CIRCLE
  5
FA
330
17
100
AcDbEntity
  8
alesage_excentrique
100
AcDbCircle
 10
28.13550000000002
 20
0.5770000000000003
 30
0.0
 40
0.008
  0
CIRCLE
  5
FB
330
17
100
AcDbEntity
  8
alesage_excentrique
100
AcDbCircle
 10
28.13550000000002
 20
0.050000000000000044
 30
0.0
 40
0.008
  0
CIRCLE
  5
FC
330
17
100
AcDbEntity
  8
alesage_tourillon
100
AcDbCircle
 10
28.33765000000002
 20
0.5770000000000003
 30
0.0
 40
0.003
  0
CIRCLE
  5
FD
330
17
100
AcDbEntity
  8
alesage_tourillon
100
AcDbCircle
 10
28.33765000000002
 20
0.050000000000000044
 30
0.0
 40
0.003
  0
CIRCLE
  5
FE
330
17
100
AcDbEntity
  8
alesage_tourillon
100
AcDbCircle
 10
29.754550000000023
 20
0.5770000000000003
 30
0.0
 40
0.003
  0
CIRCLE
  5
FF
330
17
100
AcDbEntity
  8
alesage_tourillon
100
AcDbCircle
 10
29.754550000000023
 20
0.050000000000000044
 30
0.0
 40
0.003
  0
CIRCLE
  5
100
330
17
100
AcDbEntity
  8
alesage_tourillon
100
AcDbCircle
 10
30.108775000000023
 20
0.5770000000000003
 30
0.0
 40
0.003
  0
CIRCLE
  5
101
330
17
100
AcDbEntity
  8
alesage_tourillon
100
AcDbCircle
 10
30.108775000000023
 20
0.050000000000000044
 30
0.0
 40
0.003
  0
LWPOLYLINE
  5
102
330
17
100
AcDbEntity
  8
contour
100
AcDbPolyline
 90
4
 70
1
 10
30.563000000000024
 20
0.6210000000000001
 10
30.563000000000024
 20
0.0
 10
32.91850000000002
 20
0.0
 10
32.91850000000002
 20
0.6210000000000001
  0
LWPOLYLINE
  5
103
330
17
100
AcDbEntity
  8
contour
100
AcDbPolyline
 90
4
 70
1
 10
33.018500000000024
 20
0.0
 10
33.64550000000003
 20
0.0
 10
33.64550000000003
 20
0.413
 10
33.018500000000024
 20
0.413
  0
LWPOLYLINE
  5
104
330
17
100
AcDbEntity
  8
contour
100
AcDbPolyline
 90
4
 70
1
 10
33.74550000000002
 20
0.0
 10
34.372500000000024
 20
0.0
 10
34.372500000000024
 20
0.413
 10
33.74550000000002
 20
0.413
  0
LWPOLYLINE
  5
105
330
17
100
AcDbEntity
  8
contour
100
AcDbPolyline
 90
4
 70
1
 10
34.47250000000002
 20
0.0
 10
35.09950000000002
 20
0.0
 10
35.09950000000002
 20
0.413
 10
34.47250000000002
 20
0.413
  0
CIRCLE
  5
106
330
17
100
AcDbEntity
  8
alesage_tourillon
100
AcDbCircle
 10
35.24950000000001
 20
0.0095
 30
0.0
 40
0.003
  0
CIRCLE
  5
107
330
17
100
AcDbEntity
  8
alesage_tourillon
100
AcDbCircle
 10
35.77650000000001
 20
0.0095
 30
0.0
 40
0.003
  0
LWPOLYLINE
  5
108
330
17
100
AcDbEntity
  8
contour
100
AcDbPolyline
 90
4
 70
1
 10
35.199500000000015
 20
0.0
 10
35.199500000000015
 20
0.451
 10
35.82650000000002
 20
0.451
 10
35.82650000000002
 20
0.0
  0
CIRCLE
  5
109
330
17
100
AcDbEntity
  8
alesage_tourillon
100
AcDbCircle
 10
35.24950000000001
 20
0.4415
 30
0.0
 40
0.003
  0
CIRCLE
  5
10A
330
17
100
AcDbEntity
  8
alesage_tourillon
100
AcDbCircle
 10
35.77650000000001
 20
0.4415
 30
0.0
 40
0.003
  0
LWPOLYLINE
  5
10B
330
17
100
AcDbEntity
  8
contour
100
AcDbPolyline
 90
4
 70
1
 10
35.96700000000001
 20
0.6270000000000002
 10
35.96700000000001
 20
0.0
 10
35.92650000000001
 20
0.0
 10
35.92650000000001
 20
0.6270000000000002
  0
LWPOLYLINE
  5
10C
330
17
100
AcDbEntity
  8
contour
100
AcDbPolyline
 90
4
 70
1
 10
38.428500000000014
 20
0.6270000000000002
 10
38.428500000000014
 20
0.0
 10
36.067000000000014
 20
0.0
 10
36.067000000000014
 20
0.6270000000000002
  0
CIRCLE
  5
10D
330
17
100
AcDbEntity
  8
alesage_excentrique
100
AcDbCircle
 10
38.394500000000015
 20
0.5770000000000002
 30
0.0
 40
0.008
  0
CIRCLE
  5
10E
330
17
100
AcDbEntity
  8
alesage_excentrique
100
AcDbCircle
 10
38.394500000000015
 20
0.050000000000000044
 30
0.0
 40
0.008
  0
CIRCLE
  5
10F
330
17
100
AcDbEntity
  8
alesage_excentrique
100
AcDbCircle
 10
38.37850000000002
 20
0.5930000000000002
 30
0.0
 40
0.008
  0
CIRCLE
  5
110
330
17
100
AcDbEntity
  8
alesage_excentrique
100
AcDbCircle
 10
36.11700000000001
 20
0.5930000000000002
 30
0.0
 40
0.008
  0
CIRCLE
  5
111
330
17
100
AcDbEntity
  8
alesage_excentrique
100
AcDbCircle
 10
38.37850000000002
 20
0.03400000000000003
 30
0.0
 40
0.008
  0
CIRCLE
  5
112
330
17
100
AcDbEntity
  8
alesage_excentrique
100
AcDbCircle
 10
36.11700000000001
 20
0.03400000000000003
 30
0.0
 40
0.008
  0
CIRCLE
  5
113
330
17
100
AcDbEntity
  8
alesage_excentrique
100
AcDbCircle
 10
36.10100000000001
 20
0.5770000000000002
 30
0.0
 40
0.008
  0
CIRCLE
  5
114
330
17
100
AcDbEntity
  8
alesage_excentrique
100
AcDbCircle
 10
36.10100000000001
 20
0.050000000000000044
 30
0.0
 40
0.008
  0
CIRCLE
  5
115
330
17
100
AcDbEntity
  8
alesage_tourillon
100
AcDbCircle
 10
36.53930000000001
 20
0.5770000000000002
 30
0.0
 40
0.003
  0
CIRCLE
  5
116
330
17
100
AcDbEntity
  8
alesage_tourillon
100
AcDbCircle
 10
36.53930000000001
 20
0.050000000000000044
 30
0.0
 40
0.003
  0
CIRCLE
  5
117
330
17
100
AcDbEntity
  8
alesage_tourillon
100
AcDbCircle
 10
37.011600000000016
 20
0.5770000000000002
 30
0.0
 40
0.003
  0
CIRCLE
  5
118
330
17
100
AcDbEntity
  8
alesage_tourillon
100
AcDbCircle
 10
37.011600000000016
 20
0.050000000000000044
 30
0.0
 40
0.003
  0
CIRCLE
  5
119
330
17
100
AcDbEntity
  8
alesage_tourillon
100
AcDbCircle
 10
37.48390000000001
 20
0.5770000000000002
 30
0.0
 40
0.003
  0
CIRCLE
  5
11A
330
17
100
AcDbEntity
  8
alesage_tourillon
100
AcDbCircle
 10
37.48390000000001
 20
0.050000000000000044
 30
0.0
 40
0.003
  0
CIRCLE
  5
11B
330
17
100
AcDbEntity
  8
alesage_tourillon
100
AcDbCircle
 10
37.95620000000002
 20
0.5770000000000002
 30
0.0
 40
0.003
  0
CIRCLE
  5
11C
330
17
100
AcDbEntity
  8
alesage_tourillon
100
AcDbCircle
 10
37.95620000000002
 20
0.050000000000000044
 30
0.0
 40
0.003
  0
LWPOLYLINE
  5
11D
330
17
100
AcDbEntity
  8
contour
100
AcDbPolyline
 90
4
 70
1
 10
38.528500000000015
 20
0.621
 10
38.528500000000015
 20
0.0
 10
40.884000000000015
 20
0.0
 10
40.884000000000015
 20
0.621
  0
LWPOLYLINE
  5
11E
330
17
100
AcDbEntity
  8
contour
100
AcDbPolyline
 90
4
 70
1
 10
40.984000000000016
 20
0.0
 10
41.61100000000002
 20
0.0
 10
41.61100000000002
 20
0.413
 10
40.984000000000016
 20
0.413
  0
LWPOLYLINE
  5
11F
330
17
100
AcDbEntity
  8
contour
100
AcDbPolyline
 90
4
 70
1
 10
41.71100000000001
 20
0.0
 10
42.338000000000015
 20
0.0
 10
42.338000000000015
 20
0.413
 10
41.71100000000001
 20
0.413
  0
LWPOLYLINE
  5
120
330
17
100
AcDbEntity
  8
contour
100
AcDbPolyline
 90
4
 70
1
 10
42.43800000000001
 20
0.0
 10
43.06500000000001
 20
0.0
 10
43.06500000000001
 20
0.413
 10
42.43800000000001
 20
0.413
  0
LWPOLYLINE
  5
121
330
17
100
AcDbEntity
  8
contour
100
AcDbPolyline
 90
4
 70
1
 10
43.165000000000006
 20
0.0
 10
43.79200000000001
 20
0.0
 10
43.79200000000001
 20
0.413
 10
43.165000000000006
 20
0.413
  0
CIRCLE
  5
122
330
17
100
AcDbEntity
  8
alesage_tourillon
100
AcDbCircle
 10
43.942
 20
0.0095
 30
0.0
 40
0.003
  0
CIRCLE
  5
123
330
17
100
AcDbEntity
  8
alesage_tourillon
100
AcDbCircle
 10
44.469
 20
0.0095
 30
0.0
 40
0.003
  0
LWPOLYLINE
  5
124
330
17
100
AcDbEntity
  8
contour
100
AcDbPolyline
 90
4
 70
1
 10
43.892
 20
0.0
 10
43.892
 20
0.451
 10
44.519000000000005
 20
0.451
 10
44.519000000000005
 20
0.0
  0
CIRCLE
  5
125
330
17
100
AcDbEntity
  8
alesage_tourillon
100
AcDbCircle
 10
43.942
 20
0.4415
 30
0.0
 40
0.003
  0
CIRCLE
  5
126
330
17
100
AcDbEntity
  8
alesage_tourillon
100
AcDbCircle
 10
44.469
 20
0.4415
 30
0.0
 40
0.003
  0
LWPOLYLINE
  5
127
330
17
100
AcDbEntity
  8
contour
100
AcDbPolyline
 90
4
 70
1
 10
44.6595
 20
0.6270000000000004
 10
44.6595
 20
0.0
 10
44.619
 20
0.0
 10
44.619
 20
0.6270000000000004
  0
LWPOLYLINE
  5
128
330
17
100
AcDbEntity
  8
contour
100
AcDbPolyline
 90
4
 70
1
 10
47.121
 20
0.6270000000000004
 10
47.121
 20
0.0
 10
44.7595
 20
0.0
 10
44.7595
 20
0.6270000000000004
  0
CIRCLE
  5
129
330
17
100
AcDbEntity
  8
alesage_excentrique
100
AcDbCircle
 10
47.087
 20
0.5770000000000004
 30
0.0
 40
0.008
  0
CIRCLE
  5
12A
330
17
100
AcDbEntity
  8
alesage_excentrique
100
AcDbCircle
 10
47.087
 20
0.050000000000000266
 30
0.0
 40
0.008
  0
CIRCLE
  5
12B
330
17
100
AcDbEntity
  8
alesage_excentrique
100
AcDbCircle
 10
47.071000000000005
 20
0.5930000000000004
 30
0.0
 40
0.008
  0
CIRCLE
  5
12C
330
17
100
AcDbEntity
  8
alesage_excentrique
100
AcDbCircle
 10
44.8095
 20
0.5930000000000004
 30
0.0
 40
0.008
  0
CIRCLE
  5
12D
330
17
100
AcDbEntity
  8
alesage_excentrique
100
AcDbCircle
 10
47.071000000000005
 20
0.03400000000000025
 30
0.0
 40
0.008
  0
CIRCLE
  5
12E
330
17
100
AcDbEntity
  8
alesage_excentrique
100
AcDbCircle
 10
44.8095
 20
0.03400000000000025
 30
0.0
 40
0.008
  0
CIRCLE
  5
12F
330
17
100
AcDbEntity
  8
alesage_excentrique
100
AcDbCircle
 10
44.7935
 20
0.5770000000000004
 30
0.0
 40
0.008
  0
CIRCLE
  5
130
330
17
100
AcDbEntity
  8
alesage_excentrique
100
AcDbCircle
 10
44.7935
 20
0.050000000000000266
 30
0.0
 40
0.008
  0
CIRCLE
  5
131
330
17
100
AcDbEntity
  8
alesage_tourillon
100
AcDbCircle
 10
44.995650000000005
 20
0.5770000000000004
 30
0.0
 40
0.003
  0
CIRCLE
  5
132
330
17
100
AcDbEntity
  8
alesage_tourillon
100
AcDbCircle
 10
44.995650000000005
 20
0.050000000000000266
 30
0.0
 40
0.003
  0
CIRCLE
  5
133
330
17
100
AcDbEntity
  8
alesage_tourillon
100
AcDbCircle
 10
46.41255
 20
0.5770000000000004
 30
0.0
 40
0.003
  0
CIRCLE
  5
134
330
17
100
AcDbEntity
  8
alesage_tourillon
100
AcDbCircle
 10
46.41255
 20
0.050000000000000266
 30
0.0
 40
0.003
  0
CIRCLE
  5
135
330
17
100
AcDbEntity
  8
alesage_tourillon
100
AcDbCircle
 10
46.766775
 20
0.5770000000000004
 30
0.0
 40
0.003
  0
CIRCLE
  5
136
330
17
100
AcDbEntity
  8
alesage_tourillon
100
AcDbCircle
 10
46.766775
 20
0.050000000000000266
 30
0.0
 40
0.003
  0
LWPOLYLINE
  5
137
330
17
100
AcDbEntity
  8
contour
100
AcDbPolyline
 90
4
 70
1
 10
47.221000000000004
 20
0.6210000000000002
 10
47.221000000000004
 20
0.0
 10
49.5765
 20
0.0
 10
49.5765
 20
0.6210000000000002
  0
LWPOLYLINE
  5
138
330
17
100
AcDbEntity
  8
contour
100
AcDbPolyline
 90
4
 70
1
 10
49.676500000000004
 20
0.0
 10
50.30350000000001
 20
0.0
 10
50.30350000000001
 20
0.413
 10
49.676500000000004
 20
0.413
  0
LWPOLYLINE
  5
139
330
17
100
AcDbEntity
  8
contour
100
AcDbPolyline
 90
4
 70
1
 10
50.4035
 20
0.0
 10
51.0305
 20
0.0
 10
51.0305
 20
0.413
 10
50.4035
 20
0.413
  0
LWPOLYLINE
  5
13A
330
17
100
AcDbEntity
  8
contour
100
AcDbPolyline
 90
4
 70
1
 10
51.1305
 20
0.0
 10
51.7575
 20
0.0
 10
51.7575
 20
0.413
 10
51.1305
 20
0.413
  0
CIRCLE
  5
13B
330
17
100
AcDbEntity
  8
alesage_tourillon
100
AcDbCircle
 10
52.443999999999996
 20
0.0095
 30
0.0
 40
0.003
  0
CIRCLE
  5
13C
330
17
100
AcDbEntity
  8
alesage_tourillon
100
AcDbCircle
 10
51.90749999999999
 20
0.0095
 30
0.0
 40
0.003
  0
LWPOLYLINE
  5
13D
330
17
100
AcDbEntity
  8
contour
100
AcDbPolyline
 90
4
 70
1
 10
52.49399999999999
 20
0.0
 10
52.49399999999999
 20
0.451
 10
51.857499999999995
 20
0.451
 10
51.857499999999995
 20
0.0
  0
CIRCLE
  5
13E
330
17
100
AcDbEntity
  8
alesage_tourillon
100
AcDbCircle
 10
52.443999999999996
 20
0.4415
 30
0.0
 40
0.003
  0
CIRCLE
  5
13F
330
17
100
AcDbEntity
  8
alesage_tourillon
100
AcDbCircle
 10
51.90749999999999
 20
0.4415
 30
0.0
 40
0.003
  0
LWPOLYLINE
  5
140
330
17
100
AcDbEntity
  8
contour
100
AcDbPolyline
 90
4
 70
1
 10
52.6345
 20
0.0
 10
52.6345
 20
0.6364999999999998
 10
52.594
 20
0.6364999999999998
 10
52.594
 20
0.0
  0
LWPOLYLINE
  5
141
330
17
100
AcDbEntity
  8
contour
100
AcDbPolyline
 90
4
 70
1
 10
55.096000000000004
 20
0.0
 10
55.096000000000004
 20
0.6364999999999998
 10
52.734500000000004
 20
0.6364999999999998
 10
52.734500000000004
 20
0.0
  0
CIRCLE
  5
142
330
17
100
AcDbEntity
  8
alesage_excentrique
100
AcDbCircle
 10
55.04600000000001
 20
0.03400000000000025
 30
0.0
 40
0.008
  0
CIRCLE
  5
143
330
17
100
AcDbEntity
  8
alesage_excentrique
100
AcDbCircle
 10
52.7845
 20
0.03400000000000025
 30
0.0
 40
0.008
  0
CIRCLE
  5
144
330
17
100
AcDbEntity
  8
alesage_excentrique
100
AcDbCircle
 10
55.062000000000005
 20
0.050000000000000266
 30
0.0
 40
0.008
  0
CIRCLE
  5
145
330
17
100
AcDbEntity
  8
alesage_excentrique
100
AcDbCircle
 10
55.062000000000005
 20
0.5864999999999996
 30
0.0
 40
0.008
  0
CIRCLE
  5
146
330
17
100
AcDbEntity
  8
alesage_excentrique
100
AcDbCircle
 10
55.04600000000001
 20
0.6024999999999996
 30
0.0
 40
0.008
  0
CIRCLE
  5
147
330
17
100
AcDbEntity
  8
alesage_excentrique
100
AcDbCircle
 10
52.7845
 20
0.6024999999999996
 30
0.0
 40
0.008
  0
CIRCLE
  5
148
330
17
100
AcDbEntity
  8
alesage_excentrique
100
AcDbCircle
 10
52.7685
 20
0.050000000000000266
 30
0.0
 40
0.008
  0
CIRCLE
  5
149
330
17
100
AcDbEntity
  8
alesage_excentrique
100
AcDbCircle
 10
52.7685
 20
0.5864999999999996
 30
0.0
 40
0.008
  0
CIRCLE
  5
14A
330
17
100
AcDbEntity
  8
alesage_tourillon
100
AcDbCircle
 10
53.324875000000006
 20
0.050000000000000266
 30
0.0
 40
0.003
  0
CIRCLE
  5
14B
330
17
100
AcDbEntity
  8
alesage_tourillon
100
AcDbCircle
 10
53.324875000000006
 20
0.5864999999999996
 30
0.0
 40
0.003
  0
CIRCLE
  5
14C
330
17
100
AcDbEntity
  8
alesage_tourillon
100
AcDbCircle
 10
53.91525000000001
 20
0.050000000000000266
 30
0.0
 40
0.003
  0
CIRCLE
  5
14D
330
17
100
AcDbEntity
  8
alesage_tourillon
100
AcDbCircle
 10
53.91525000000001
 20
0.5864999999999996
 30
0.0
 40
0.003
  0
CIRCLE
  5
14E
330
17
100
AcDbEntity
  8
alesage_tourillon
100
AcDbCircle
 10
54.505625
 20
0.050000000000000266
 30
0.0
 40
0.003
  0
CIRCLE
  5
14F
330
17
100
AcDbEntity
  8
alesage_tourillon
100
AcDbCircle
 10
54.505625
 20
0.5864999999999996
 30
0.0
 40
0.003
  0
LWPOLYLINE
  5
150
330
17
100
AcDbEntity
  8
contour
100
AcDbPolyline
 90
4
 70
1
 10
55.196000000000005
 20
0.6304999999999996
 10
55.196000000000005
 20
0.0
 10
57.551500000000004
 20
0.0
 10
57.551500000000004
 20
0.6304999999999996
  0
LWPOLYLINE
  5
151
330
17
100
AcDbEntity
  8
contour
100
AcDbPolyline
 90
4
 70
1
 10
58.288000000000004
 20
0.0
 10
57.651500000000006
 20
0.0
 10
57.651500000000006
 20
0.413
 10
58.288000000000004
 20
0.413
  0
LWPOLYLINE
  5
152
330
17
100
AcDbEntity
  8
contour
100
AcDbPolyline
 90
4
 70
1
 10
59.02450000000001
 20
0.0
 10
58.38800000000001
 20
0.0
 10
58.38800000000001
 20
0.413
 10
59.02450000000001
 20
0.413
  0
LWPOLYLINE
  5
153
330
17
100
AcDbEntity
  8
contour
100
AcDbPolyline
 90
4
 70
1
 10
59.76100000000002
 20
0.0
 10
59.12450000000002
 20
0.0
 10
59.12450000000002
 20
0.413
 10
59.76100000000002
 20
0.413
  0
ENDSEC
  0
SECTION
  2
OBJECTS
  0
DICTIONARY
  5
A
330
0
100
AcDbDictionary
280
0
281
1
  3
ACAD_COLOR
350
B
  3
ACAD_GROUP
350
C
  3
ACAD_LAYOUT
350
D
  3
ACAD_MATERIAL
350
E
  3
ACAD_MLEADERSTYLE
350
F
  3
ACAD_MLINESTYLE
350
10
  3
ACAD_PLOTSETTINGS
350
11
  3
ACAD_PLOTSTYLENAME
350
12
  3
ACAD_SCALELIST
350
14
  3
ACAD_TABLESTYLE
350
15
  3
ACAD_VISUALSTYLE
350
16
  3
EZDXF_META
350
2D
  0
DICTIONARY
  5
B
330
A
100
AcDbDictionary
280
0
281
1
  0
DICTIONARY
  5
C
330
A
100
AcDbDictionary
280
0
281
1
  0
DICTIONARY
  5
D
330
A
100
AcDbDictionary
280
0
281
1
  3
Model
350
1A
  3
Layout1
350
1E
  0
DICTIONARY
  5
E
330
A
100
AcDbDictionary
280
0
281
1
  3
ByBlock
350
1F
  3
ByLayer
350
20
  3
Global
350
21
  0
DICTIONARY
  5
F
330
A
100
AcDbDictionary
280
0
281
1
  3
Standard
350
2C
  0
DICTIONARY
  5
10
330
A
100
AcDbDictionary
280
0
281
1
  3
Standard
350
22
  0
DICTIONARY
  5
11
330
A
100
AcDbDictionary
280
0
281
1
  0
ACDBDICTIONARYWDFLT
  5
12
330
A
100
AcDbDictionary
280
0
281
1
  3
Normal
350
13
100
AcDbDictionaryWithDefault
340
13
  0
ACDBPLACEHOLDER
  5
13
330
12
  0
DICTIONARY
  5
14
330
A
100
AcDbDictionary
280
0
281
1
  0
DICTIONARY
  5
15
330
A
100
AcDbDictionary
280
0
281
1
  0
DICTIONARY
  5
16
330
A
100
AcDbDictionary
280
0
281
1
  0
LAYOUT
  5
1A
330
D
100
AcDbPlotSettings
  1

  2
Adobe PDF
  4
A3
  6

 40
7.5
 41
20.0
 42
7.5
 43
20.0
 44
420.0
 45
297.0
 46
0.0
 47
0.0
 48
0.0
 49
0.0
140
0.0
141
0.0
142
1.0
143
1.0
 70
1024
 72
1
 73
0
 74
5
  7

 75
16
 76
0
 77
2
 78
300
147
1.0
148
0.0
149
0.0
100
AcDbLayout
  1
Model
 70
1
 71
0
 10
0.0
 20
0.0
 11
420.0
 21
297.0
 12
0.0
 22
0.0
 32
0.0
 14
1e+20
 24
1e+20
 34
1e+20
 15
-1e+20
 25
-1e+20
 35
-1e+20
146
0.0
 13
0.0
 23
0.0
 33
0.0
 16
1.0
 26
0.0
 36
0.0
 17
0.0
 27
1.0
 37
0.0
 76
1
330
17
  0
LAYOUT
  5
1E
330
D
100
AcDbPlotSettings
  1

  2
Adobe PDF
  4
A3
  6

 40
7.5
 41
20.0
 42
7.5
 43
20.0
 44
420.0
 45
297.0
 46
0.0
 47
0.0
 48
0.0
 49
0.0
140
0.0
141
0.0
142
1.0
143
1.0
 70
0
 72
1
 73
0
 74
5
  7

 75
16
 76
0
 77
2
 78
300
147
1.0
148
0.0
149
0.0
100
AcDbLayout
  1
Layout1
 70
1
 71
1
 10
0.0
 20
0.0
 11
420.0
 21
297.0
 12
0.0
 22
0.0
 32
0.0
 14
1e+20
 24
1e+20
 34
1e+20
 15
-1e+20
 25
-1e+20
 35
-1e+20
146
0.0
 13
0.0
 23
0.0
 33
0.0
 16
1.0
 26
0.0
 36
0.0
 17
0.0
 27
1.0
 37
0.0
 76
1
330
1B
  0
MATERIAL
  5
1F
102
{ACAD_REACTORS
330
E
102
}
330
E
100
AcDbMaterial
  1
ByBlock
  2

 70
0
 40
1.0
 71
1
 41
1.0
 91
-1023410177
 42
1.0
 72
1
  3

 73
1
 74
1
 75
1
 44
0.5
 73
0
 45
1.0
 46
1.0
 77
1
  4

 78
1
 79
1
170
1
 48
1.0
171
1
  6

172
1
173
1
174
1
140
1.0
141
1.0
175
1
  7

176
1
177
1
178
1
143
1.0
179
1
  8

270
1
271
1
272
1
145
1.0
146
1.0
273
1
  9

274
1
275
1
276
1
 42
1.0
 72
1
  3

 73
1
 74
1
 75
1
 94
63
  0
MATERIAL
  5
20
102
{ACAD_REACTORS
330
E
102
}
330
E
100
AcDbMaterial
  1
ByLayer
  2

 70
0
 40
1.0
 71
1
 41
1.0
 91
-1023410177
 42
1.0
 72
1
  3

 73
1
 74
1
 75
1
 44
0.5
 73
0
 45
1.0
 46
1.0
 77
1
  4

 78
1
 79
1
170
1
 48
1.0
171
1
  6

172
1
173
1
174
1
140
1.0
141
1.0
175
1
  7

176
1
177
1
178
1
143
1.0
179
1
  8

270
1
271
1
272
1
145
1.0
146
1.0
273
1
  9

274
1
275
1
276
1
 42
1.0
 72
1
  3

 73
1
 74
1
 75
1
 94
63
  0
MATERIAL
  5
21
102
{ACAD_REACTORS
330
E
102
}
330
E
100
AcDbMaterial
  1
Global
  2

 70
0
 40
1.0
 71
1
 41
1.0
 91
-1023410177
 42
1.0
 72
1
  3

 73
1
 74
1
 75
1
 44
0.5
 73
0
 45
1.0
 46
1.0
 77
1
  4

 78
1
 79
1
170
1
 48
1.0
171
1
  6

172
1
173
1
174
1
140
1.0
141
1.0
175
1
  7

176
1
177
1
178
1
143
1.0
179
1
  8

270
1
271
1
272
1
145
1.0
146
1.0
273
1
  9

274
1
275
1
276
1
 42
1.0
 72
1
  3

 73
1
 74
1
 75
1
 94
63
  0
MLINESTYLE
  5
22
102
{ACAD_REACTORS
330
10
102
}
330
10
100
AcDbMlineStyle
  2
Standard
 70
0
  3

 62
256
 51
90.0
 52
90.0
 71
2
 49
0.5
 62
256
  6
BYLAYER
 49
-0.5
 62
256
  6
BYLAYER
  0
MLEADERSTYLE
  5
2C
102
{ACAD_REACTORS
330
F
102
}
330
F
100
AcDbMLeaderStyle
179
2
170
2
171
1
172
0
 90
2
 40
0.0
 41
0.0
173
1
 91
-1056964608
 92
-2
290
1
 42
2.0
291
1
 43
8.0
  3
Standard
 44
4.0
300

342
29
174
1
175
1
176
0
178
1
 93
-1056964608
 45
4.0
292
0
297
0
 46
4.0
 94
-1056964608
 47
1.0
 49
1.0
140
1.0
294
1
141
0.0
177
0
142
1.0
295
0
296
0
143
3.75
271
0
272
9
273
9
  0
DICTIONARY
  5
2D
330
A
100
AcDbDictionary
281
1
  3
CREATED_BY_EZDXF
350
2E
  3
WRITTEN_BY_EZDXF
350
156
  0
DICTIONARYVAR
  5
2E
330
2D
100
DictionaryVariables
280
0
  1
1.1.4 @ 2025-02-13T10:27:11.884988+00:00
  0
DICTIONARYVAR
  5
156
330
2D
100
DictionaryVariables
280
0
  1
1.1.4 @ 2025-02-13T10:27:11.917206+00:00
  0
ENDSEC
  0
EOF
