  0
SECTION
  2
HEADER
  9
$ACADVER
  1
AC1027
  9
$ACADMAINTVER
 70
105
  9
$DWGCODEPAGE
  3
ANSI_1252
  9
$LASTSAVEDBY
  1
ezdxf
  9
$REQUIREDVERSIONS
160
0
  9
$INSBASE
 10
0.0
 20
0.0
 30
0.0
  9
$EXTMIN
 10
1e+20
 20
1e+20
 30
1e+20
  9
$EXTMAX
 10
-1e+20
 20
-1e+20
 30
-1e+20
  9
$LIMMIN
 10
0.0
 20
0.0
  9
$LIMMAX
 10
420.0
 20
297.0
  9
$ORTHOMODE
 70
0
  9
$REGENMODE
 70
1
  9
$FILLMODE
 70
1
  9
$QTEXTMODE
 70
0
  9
$MIRRTEXT
 70
1
  9
$LTSCALE
 40
1.0
  9
$ATTMODE
 70
1
  9
$TEXTSIZE
 40
2.5
  9
$TRACEWID
 40
1.0
  9
$TEXTSTYLE
  7
Standard
  9
$CLAYER
  8
0
  9
$CELTYPE
  6
ByLayer
  9
$CECOLOR
 62
256
  9
$CELTSCALE
 40
1.0
  9
$DISPSILH
 70
0
  9
$DIMSCALE
 40
1.0
  9
$DIMASZ
 40
2.5
  9
$DIMEXO
 40
0.625
  9
$DIMDLI
 40
3.75
  9
$DIMRND
 40
0.0
  9
$DIMDLE
 40
0.0
  9
$DIMEXE
 40
1.25
  9
$DIMTP
 40
0.0
  9
$DIMTM
 40
0.0
  9
$DIMTXT
 40
2.5
  9
$DIMCEN
 40
2.5
  9
$DIMTSZ
 40
0.0
  9
$DIMTOL
 70
0
  9
$DIMLIM
 70
0
  9
$DIMTIH
 70
0
  9
$DIMTOH
 70
0
  9
$DIMSE1
 70
0
  9
$DIMSE2
 70
0
  9
$DIMTAD
 70
1
  9
$DIMZIN
 70
8
  9
$DIMBLK
  1

  9
$DIMASO
 70
1
  9
$DIMSHO
 70
1
  9
$DIMPOST
  1

  9
$DIMAPOST
  1

  9
$DIMALT
 70
0
  9
$DIMALTD
 70
3
  9
$DIMALTF
 40
0.03937007874
  9
$DIMLFAC
 40
1.0
  9
$DIMTOFL
 70
1
  9
$DIMTVP
 40
0.0
  9
$DIMTIX
 70
0
  9
$DIMSOXD
 70
0
  9
$DIMSAH
 70
0
  9
$DIMBLK1
  1

  9
$DIMBLK2
  1

  9
$DIMSTYLE
  2
ISO-25
  9
$DIMCLRD
 70
0
  9
$DIMCLRE
 70
0
  9
$DIMCLRT
 70
0
  9
$DIMTFAC
 40
1.0
  9
$DIMGAP
 40
0.625
  9
$DIMJUST
 70
0
  9
$DIMSD1
 70
0
  9
$DIMSD2
 70
0
  9
$DIMTOLJ
 70
0
  9
$DIMTZIN
 70
8
  9
$DIMALTZ
 70
0
  9
$DIMALTTZ
 70
0
  9
$DIMUPT
 70
0
  9
$DIMDEC
 70
2
  9
$DIMTDEC
 70
2
  9
$DIMALTU
 70
2
  9
$DIMALTTD
 70
3
  9
$DIMTXSTY
  7
Standard
  9
$DIMAUNIT
 70
0
  9
$DIMADEC
 70
0
  9
$DIMALTRND
 40
0.0
  9
$DIMAZIN
 70
0
  9
$DIMDSEP
 70
44
  9
$DIMATFIT
 70
3
  9
$DIMFRAC
 70
0
  9
$DIMLDRBLK
  1

  9
$DIMLUNIT
 70
2
  9
$DIMLWD
 70
-2
  9
$DIMLWE
 70
-2
  9
$DIMTMOVE
 70
0
  9
$DIMFXL
 40
1.0
  9
$DIMFXLON
 70
0
  9
$DIMJOGANG
 40
0.785398163397
  9
$DIMTFILL
 70
0
  9
$DIMTFILLCLR
 70
0
  9
$DIMARCSYM
 70
0
  9
$DIMLTYPE
  6

  9
$DIMLTEX1
  6

  9
$DIMLTEX2
  6

  9
$DIMTXTDIRECTION
 70
0
  9
$LUNITS
 70
2
  9
$LUPREC
 70
4
  9
$SKETCHINC
 40
1.0
  9
$FILLETRAD
 40
10.0
  9
$AUNITS
 70
0
  9
$AUPREC
 70
2
  9
$MENU
  1
Toutes les unités sont en mètres
  9
$ELEVATION
 40
0.0
  9
$PELEVATION
 40
0.0
  9
$THICKNESS
 40
0.0
  9
$LIMCHECK
 70
0
  9
$CHAMFERA
 40
0.0
  9
$CHAMFERB
 40
0.0
  9
$CHAMFERC
 40
0.0
  9
$CHAMFERD
 40
0.0
  9
$SKPOLY
 70
0
  9
$TDCREATE
 40
2460968.949548611
  9
$TDUCREATE
 40
2458532.153996898
  9
$TDUPDATE
 40
2460968.949548611
  9
$TDUUPDATE
 40
2458532.1544311
  9
$TDINDWG
 40
0.0
  9
$TDUSRTIMER
 40
0.0
  9
$USRTIMER
 70
1
  9
$ANGBASE
 50
0.0
  9
$ANGDIR
 70
0
  9
$PDMODE
 70
0
  9
$PDSIZE
 40
0.0
  9
$PLINEWID
 40
0.0
  9
$SPLFRAME
 70
0
  9
$SPLINETYPE
 70
6
  9
$SPLINESEGS
 70
8
  9
$HANDSEED
  5
13E
  9
$SURFTAB1
 70
6
  9
$SURFTAB2
 70
6
  9
$SURFTYPE
 70
6
  9
$SURFU
 70
6
  9
$SURFV
 70
6
  9
$UCSBASE
  2

  9
$UCSNAME
  2

  9
$UCSORG
 10
0.0
 20
0.0
 30
0.0
  9
$UCSXDIR
 10
1.0
 20
0.0
 30
0.0
  9
$UCSYDIR
 10
0.0
 20
1.0
 30
0.0
  9
$UCSORTHOREF
  2

  9
$UCSORTHOVIEW
 70
0
  9
$UCSORGTOP
 10
0.0
 20
0.0
 30
0.0
  9
$UCSORGBOTTOM
 10
0.0
 20
0.0
 30
0.0
  9
$UCSORGLEFT
 10
0.0
 20
0.0
 30
0.0
  9
$UCSORGRIGHT
 10
0.0
 20
0.0
 30
0.0
  9
$UCSORGFRONT
 10
0.0
 20
0.0
 30
0.0
  9
$UCSORGBACK
 10
0.0
 20
0.0
 30
0.0
  9
$PUCSBASE
  2

  9
$PUCSNAME
  2

  9
$PUCSORG
 10
0.0
 20
0.0
 30
0.0
  9
$PUCSXDIR
 10
1.0
 20
0.0
 30
0.0
  9
$PUCSYDIR
 10
0.0
 20
1.0
 30
0.0
  9
$PUCSORTHOREF
  2

  9
$PUCSORTHOVIEW
 70
0
  9
$PUCSORGTOP
 10
0.0
 20
0.0
 30
0.0
  9
$PUCSORGBOTTOM
 10
0.0
 20
0.0
 30
0.0
  9
$PUCSORGLEFT
 10
0.0
 20
0.0
 30
0.0
  9
$PUCSORGRIGHT
 10
0.0
 20
0.0
 30
0.0
  9
$PUCSORGFRONT
 10
0.0
 20
0.0
 30
0.0
  9
$PUCSORGBACK
 10
0.0
 20
0.0
 30
0.0
  9
$USERI1
 70
0
  9
$USERI2
 70
0
  9
$USERI3
 70
0
  9
$USERI4
 70
0
  9
$USERI5
 70
0
  9
$USERR1
 40
0.0
  9
$USERR2
 40
0.0
  9
$USERR3
 40
0.0
  9
$USERR4
 40
0.0
  9
$USERR5
 40
0.0
  9
$WORLDVIEW
 70
1
  9
$SHADEDGE
 70
3
  9
$SHADEDIF
 70
70
  9
$TILEMODE
 70
1
  9
$MAXACTVP
 70
64
  9
$PINSBASE
 10
0.0
 20
0.0
 30
0.0
  9
$PLIMCHECK
 70
0
  9
$PEXTMIN
 10
1e+20
 20
1e+20
 30
1e+20
  9
$PEXTMAX
 10
-1e+20
 20
-1e+20
 30
-1e+20
  9
$PLIMMIN
 10
0.0
 20
0.0
  9
$PLIMMAX
 10
420.0
 20
297.0
  9
$UNITMODE
 70
0
  9
$VISRETAIN
 70
1
  9
$PLINEGEN
 70
0
  9
$PSLTSCALE
 70
1
  9
$TREEDEPTH
 70
3020
  9
$CMLSTYLE
  2
Standard
  9
$CMLJUST
 70
0
  9
$CMLSCALE
 40
20.0
  9
$PROXYGRAPHICS
 70
1
  9
$MEASUREMENT
 70
1
  9
$CELWEIGHT
370
-1
  9
$ENDCAPS
280
0
  9
$JOINSTYLE
280
0
  9
$LWDISPLAY
290
0
  9
$INSUNITS
 70
6
  9
$HYPERLINKBASE
  1

  9
$STYLESHEET
  1

  9
$XEDIT
290
1
  9
$CEPSNTYPE
380
0
  9
$PSTYLEMODE
290
1
  9
$FINGERPRINTGUID
  2
{2CAEE0E8-48A3-40FE-97B1-A7A0BF974305}
  9
$VERSIONGUID
  2
{8FABE297-CEC6-457B-94A8-073ACFFBFC5B}
  9
$EXTNAMES
290
1
  9
$PSVPSCALE
 40
0.0
  9
$OLESTARTUP
290
0
  9
$SORTENTS
280
127
  9
$INDEXCTL
280
0
  9
$HIDETEXT
280
1
  9
$XCLIPFRAME
280
1
  9
$HALOGAP
280
0
  9
$OBSCOLOR
 70
257
  9
$OBSLTYPE
280
0
  9
$INTERSECTIONDISPLAY
280
0
  9
$INTERSECTIONCOLOR
 70
257
  9
$DIMASSOC
280
2
  9
$PROJECTNAME
  1

  9
$CAMERADISPLAY
290
0
  9
$LENSLENGTH
 40
50.0
  9
$CAMERAHEIGHT
 40
0.0
  9
$STEPSPERSEC
 40
24.0
  9
$STEPSIZE
 40
100.0
  9
$3DDWFPREC
 40
2.0
  9
$PSOLWIDTH
 40
0.005
  9
$PSOLHEIGHT
 40
0.08
  9
$LOFTANG1
 40
1.570796326795
  9
$LOFTANG2
 40
1.570796326795
  9
$LOFTMAG1
 40
0.0
  9
$LOFTMAG2
 40
0.0
  9
$LOFTPARAM
 70
7
  9
$LOFTNORMALS
280
1
  9
$LATITUDE
 40
37.795
  9
$LONGITUDE
 40
-122.394
  9
$NORTHDIRECTION
 40
0.0
  9
$TIMEZONE
 70
-8000
  9
$LIGHTGLYPHDISPLAY
280
1
  9
$TILEMODELIGHTSYNCH
280
1
  9
$CMATERIAL
347
20
  9
$SOLIDHIST
280
0
  9
$SHOWHIST
280
1
  9
$DWFFRAME
280
2
  9
$DGNFRAME
280
2
  9
$REALWORLDSCALE
290
1
  9
$INTERFERECOLOR
 62
256
  9
$CSHADOW
280
0
  9
$SHADOWPLANELOCATION
 40
0.0
  0
ENDSEC
  0
SECTION
  2
CLASSES
  0
CLASS
  1
ACDBDICTIONARYWDFLT
  2
AcDbDictionaryWithDefault
  3
ObjectDBX Classes
 90
0
 91
0
280
0
281
0
  0
CLASS
  1
SUN
  2
AcDbSun
  3
SCENEOE
 90
1153
 91
0
280
0
281
0
  0
CLASS
  1
VISUALSTYLE
  2
AcDbVisualStyle
  3
ObjectDBX Classes
 90
4095
 91
0
280
0
281
0
  0
CLASS
  1
MATERIAL
  2
AcDbMaterial
  3
ObjectDBX Classes
 90
1153
 91
0
280
0
281
0
  0
CLASS
  1
SCALE
  2
AcDbScale
  3
ObjectDBX Classes
 90
1153
 91
0
280
0
281
0
  0
CLASS
  1
TABLESTYLE
  2
AcDbTableStyle
  3
ObjectDBX Classes
 90
4095
 91
0
280
0
281
0
  0
CLASS
  1
MLEADERSTYLE
  2
AcDbMLeaderStyle
  3
ACDB_MLEADERSTYLE_CLASS
 90
4095
 91
0
280
0
281
0
  0
CLASS
  1
DICTIONARYVAR
  2
AcDbDictionaryVar
  3
ObjectDBX Classes
 90
0
 91
0
280
0
281
0
  0
CLASS
  1
CELLSTYLEMAP
  2
AcDbCellStyleMap
  3
ObjectDBX Classes
 90
1152
 91
0
280
0
281
0
  0
CLASS
  1
MENTALRAYRENDERSETTINGS
  2
AcDbMentalRayRenderSettings
  3
SCENEOE
 90
1024
 91
0
280
0
281
0
  0
CLASS
  1
ACDBDETAILVIEWSTYLE
  2
AcDbDetailViewStyle
  3
ObjectDBX Classes
 90
1025
 91
0
280
0
281
0
  0
CLASS
  1
ACDBSECTIONVIEWSTYLE
  2
AcDbSectionViewStyle
  3
ObjectDBX Classes
 90
1025
 91
0
280
0
281
0
  0
CLASS
  1
RASTERVARIABLES
  2
AcDbRasterVariables
  3
ISM
 90
0
 91
0
280
0
281
0
  0
CLASS
  1
LAYOUT
  2
AcDbLayout
  3
ObjectDBX Classes
 90
0
 91
0
280
0
281
0
  0
CLASS
  1
ACDBPLACEHOLDER
  2
AcDbPlaceHolder
  3
ObjectDBX Classes
 90
0
 91
0
280
0
281
0
  0
ENDSEC
  0
SECTION
  2
TABLES
  0
TABLE
  2
VPORT
  5
8
330
0
100
AcDbSymbolTable
 70
1
  0
VPORT
  5
23
330
8
100
AcDbSymbolTableRecord
100
AcDbViewportTableRecord
  2
*Active
 70
0
 10
0.0
 20
0.0
 11
1.0
 21
1.0
 12
0.0
 22
0.0
 13
0.0
 23
0.0
 14
0.5
 24
0.5
 15
0.5
 25
0.5
 16
0.0
 26
0.0
 36
1.0
 17
0.0
 27
0.0
 37
0.0
 40
1000.0
 41
1.34
 42
50.0
 43
0.0
 44
0.0
 50
0.0
 51
0.0
 71
0
 72
1000
 73
1
 74
3
 75
0
 76
0
 77
0
 78
0
281
0
 65
0
146
0.0
  0
ENDTAB
  0
TABLE
  2
LTYPE
  5
2
330
0
100
AcDbSymbolTable
 70
3
  0
LTYPE
  5
24
330
2
100
AcDbSymbolTableRecord
100
AcDbLinetypeTableRecord
  2
ByBlock
 70
0
  3

 72
65
 73
0
 40
0.0
  0
LTYPE
  5
25
330
2
100
AcDbSymbolTableRecord
100
AcDbLinetypeTableRecord
  2
ByLayer
 70
0
  3

 72
65
 73
0
 40
0.0
  0
LTYPE
  5
26
330
2
100
AcDbSymbolTableRecord
100
AcDbLinetypeTableRecord
  2
Continuous
 70
0
  3

 72
65
 73
0
 40
0.0
  0
ENDTAB
  0
TABLE
  2
LAYER
  5
1
330
0
100
AcDbSymbolTable
 70
8
  0
LAYER
  5
27
330
1
100
AcDbSymbolTableRecord
100
AcDbLayerTableRecord
  2
0
 70
0
 62
7
  6
Continuous
370
-3
390
13
347
21
  0
LAYER
  5
28
330
1
100
AcDbSymbolTableRecord
100
AcDbLayerTableRecord
  2
Defpoints
 70
0
 62
7
  6
Continuous
290
0
370
-3
390
13
347
21
  0
LAYER
  5
2F
330
1
100
AcDbSymbolTableRecord
100
AcDbLayerTableRecord
  2
contour_haut
 70
0
 62
1
  6
Continuous
370
-3
390
13
347
21
  0
LAYER
  5
30
330
1
100
AcDbSymbolTableRecord
100
AcDbLayerTableRecord
  2
contour_bas
 70
0
 62
2
  6
Continuous
370
-3
390
13
347
21
  0
LAYER
  5
31
330
1
100
AcDbSymbolTableRecord
100
AcDbLayerTableRecord
  2
texte
 70
0
 62
9
  6
Continuous
370
-3
390
13
347
21
  0
LAYER
  5
34
330
1
100
AcDbSymbolTableRecord
100
AcDbLayerTableRecord
  2
diam_0.005m
 70
0
 62
2
  6
Continuous
370
-3
390
13
347
21
  0
LAYER
  5
37
330
1
100
AcDbSymbolTableRecord
100
AcDbLayerTableRecord
  2
diam_0.008m
 70
0
 62
3
  6
Continuous
370
-3
390
13
347
21
  0
LAYER
  5
60
330
1
100
AcDbSymbolTableRecord
100
AcDbLayerTableRecord
  2
diam_0.015m
 70
0
 62
4
  6
Continuous
370
-3
390
13
347
21
  0
ENDTAB
  0
TABLE
  2
STYLE
  5
5
330
0
100
AcDbSymbolTable
 70
1
  0
STYLE
  5
29
330
5
100
AcDbSymbolTableRecord
100
AcDbTextStyleTableRecord
  2
Standard
 70
0
 40
0.0
 41
1.0
 50
0.0
 71
0
 42
2.5
  3
txt
  4

  0
ENDTAB
  0
TABLE
  2
VIEW
  5
7
330
0
100
AcDbSymbolTable
 70
0
  0
ENDTAB
  0
TABLE
  2
UCS
  5
6
330
0
100
AcDbSymbolTable
 70
0
  0
ENDTAB
  0
TABLE
  2
APPID
  5
3
330
0
100
AcDbSymbolTable
 70
3
  0
APPID
  5
2A
330
3
100
AcDbSymbolTableRecord
100
AcDbRegAppTableRecord
  2
ACAD
 70
0
  0
APPID
  5
13B
330
3
100
AcDbSymbolTableRecord
100
AcDbRegAppTableRecord
  2
HATCHBACKGROUNDCOLOR
 70
0
  0
APPID
  5
13C
330
3
100
AcDbSymbolTableRecord
100
AcDbRegAppTableRecord
  2
EZDXF
 70
0
  0
ENDTAB
  0
TABLE
  2
DIMSTYLE
  5
4
330
0
100
AcDbSymbolTable
 70
1
100
AcDbDimStyleTable
  0
DIMSTYLE
105
2B
330
4
100
AcDbSymbolTableRecord
100
AcDbDimStyleTableRecord
  2
Standard
 70
0
 40
1.0
 41
2.5
 42
0.625
 43
3.75
 44
1.25
 45
0.0
 46
0.0
 47
0.0
 48
0.0
 49
2.5
140
2.5
141
2.5
142
0.0
143
0.03937007874
144
1.0
145
0.0
146
1.0
147
0.625
148
0.0
 69
0
 70
0
 71
0
 72
0
 73
0
 74
0
 75
0
 76
0
 77
1
 78
8
 79
3
170
0
171
3
172
1
173
0
174
0
175
0
176
0
177
0
178
0
179
2
271
2
272
2
273
2
274
3
275
0
276
0
277
2
278
44
279
0
280
0
281
0
282
0
283
0
284
8
285
0
286
0
288
0
289
3
290
0
371
-2
372
-2
  0
ENDTAB
  0
TABLE
  2
BLOCK_RECORD
  5
9
330
0
100
AcDbSymbolTable
 70
2
  0
BLOCK_RECORD
  5
17
330
9
100
AcDbSymbolTableRecord
100
AcDbBlockTableRecord
  2
*Model_Space
340
1A
 70
0
280
1
281
0
  0
BLOCK_RECORD
  5
1B
330
9
100
AcDbSymbolTableRecord
100
AcDbBlockTableRecord
  2
*Paper_Space
340
1E
 70
0
280
1
281
0
  0
ENDTAB
  0
ENDSEC
  0
SECTION
  2
BLOCKS
  0
BLOCK
  5
18
330
17
100
AcDbEntity
  8
0
100
AcDbBlockBegin
  2
*Model_Space
 70
0
 10
0.0
 20
0.0
 30
0.0
  3
*Model_Space
  1

  0
ENDBLK
  5
19
330
17
100
AcDbEntity
  8
0
100
AcDbBlockEnd
  0
BLOCK
  5
1C
330
1B
100
AcDbEntity
  8
0
100
AcDbBlockBegin
  2
*Paper_Space
 70
0
 10
0.0
 20
0.0
 30
0.0
  3
*Paper_Space
  1

  0
ENDBLK
  5
1D
330
1B
100
AcDbEntity
  8
0
100
AcDbBlockEnd
  0
ENDSEC
  0
SECTION
  2
ENTITIES
  0
LWPOLYLINE
  5
32
330
17
100
AcDbEntity
  8
contour_haut
100
AcDbPolyline
 90
4
 70
1
 10
0.0
 20
0.0
 10
0.8
 20
0.0
 10
0.8
 20
1.0
 10
0.0
 20
1.0
  0
TEXT
  5
33
330
17
100
AcDbEntity
  8
texte
100
AcDbText
 10
0.0
 20
0.5
 30
0.0
 40
0.05
  1
0G1
100
AcDbText
  0
CIRCLE
  5
35
330
17
100
AcDbEntity
  8
diam_0.005m
100
AcDbCircle
 10
0.06
 20
0.9905
 30
0.0
 40
0.0025
  0
CIRCLE
  5
36
330
17
100
AcDbEntity
  8
diam_0.005m
100
AcDbCircle
 10
0.74
 20
0.9905
 30
0.0
 40
0.0025
  0
CIRCLE
  5
38
330
17
100
AcDbEntity
  8
diam_0.008m
100
AcDbCircle
 10
0.028
 20
0.9905
 30
0.0
 40
0.004
  0
CIRCLE
  5
39
330
17
100
AcDbEntity
  8
diam_0.008m
100
AcDbCircle
 10
0.708
 20
0.9905
 30
0.0
 40
0.004
  0
CIRCLE
  5
3A
330
17
100
AcDbEntity
  8
diam_0.008m
100
AcDbCircle
 10
0.092
 20
0.9905
 30
0.0
 40
0.004
  0
CIRCLE
  5
3B
330
17
100
AcDbEntity
  8
diam_0.008m
100
AcDbCircle
 10
0.772
 20
0.9905
 30
0.0
 40
0.004
  0
CIRCLE
  5
3C
330
17
100
AcDbEntity
  8
diam_0.005m
100
AcDbCircle
 10
0.74
 20
0.0095
 30
0.0
 40
0.0025
  0
CIRCLE
  5
3D
330
17
100
AcDbEntity
  8
diam_0.005m
100
AcDbCircle
 10
0.06
 20
0.0095
 30
0.0
 40
0.0025
  0
CIRCLE
  5
3E
330
17
100
AcDbEntity
  8
diam_0.008m
100
AcDbCircle
 10
0.772
 20
0.0095
 30
0.0
 40
0.004
  0
CIRCLE
  5
3F
330
17
100
AcDbEntity
  8
diam_0.008m
100
AcDbCircle
 10
0.092
 20
0.0095
 30
0.0
 40
0.004
  0
CIRCLE
  5
40
330
17
100
AcDbEntity
  8
diam_0.008m
100
AcDbCircle
 10
0.708
 20
0.0095
 30
0.0
 40
0.004
  0
CIRCLE
  5
41
330
17
100
AcDbEntity
  8
diam_0.008m
100
AcDbCircle
 10
0.028
 20
0.0095
 30
0.0
 40
0.004
  0
CIRCLE
  5
42
330
17
100
AcDbEntity
  8
diam_0.005m
100
AcDbCircle
 10
0.0095
 20
0.921
 30
0.0
 40
0.0025
  0
CIRCLE
  5
43
330
17
100
AcDbEntity
  8
diam_0.005m
100
AcDbCircle
 10
0.0095
 20
0.079
 30
0.0
 40
0.0025
  0
CIRCLE
  5
44
330
17
100
AcDbEntity
  8
diam_0.008m
100
AcDbCircle
 10
0.0095
 20
0.889
 30
0.0
 40
0.004
  0
CIRCLE
  5
45
330
17
100
AcDbEntity
  8
diam_0.008m
100
AcDbCircle
 10
0.0095
 20
0.047
 30
0.0
 40
0.004
  0
CIRCLE
  5
46
330
17
100
AcDbEntity
  8
diam_0.008m
100
AcDbCircle
 10
0.0095
 20
0.953
 30
0.0
 40
0.004
  0
CIRCLE
  5
47
330
17
100
AcDbEntity
  8
diam_0.008m
100
AcDbCircle
 10
0.0095
 20
0.111
 30
0.0
 40
0.004
  0
CIRCLE
  5
48
330
17
100
AcDbEntity
  8
diam_0.005m
100
AcDbCircle
 10
0.75
 20
0.4825
 30
0.0
 40
0.0025
  0
CIRCLE
  5
49
330
17
100
AcDbEntity
  8
diam_0.005m
100
AcDbCircle
 10
0.069
 20
0.4825
 30
0.0
 40
0.0025
  0
LWPOLYLINE
  5
4A
330
17
100
AcDbEntity
  8
contour_haut
100
AcDbPolyline
 90
4
 70
1
 10
0.9
 20
1.0
 10
1.7000000000000002
 20
1.0
 10
1.7000000000000002
 20
0.0
 10
0.9
 20
0.0
  0
TEXT
  5
4B
330
17
100
AcDbEntity
  8
texte
100
AcDbText
 10
0.9
 20
0.5
 30
0.0
 40
0.05
  1
1G1
100
AcDbText
  0
CIRCLE
  5
4C
330
17
100
AcDbEntity
  8
diam_0.005m
100
AcDbCircle
 10
0.96
 20
0.009499999999999953
 30
0.0
 40
0.0025
  0
CIRCLE
  5
4D
330
17
100
AcDbEntity
  8
diam_0.005m
100
AcDbCircle
 10
1.6400000000000001
 20
0.009499999999999953
 30
0.0
 40
0.0025
  0
CIRCLE
  5
4E
330
17
100
AcDbEntity
  8
diam_0.008m
100
AcDbCircle
 10
0.992
 20
0.009499999999999953
 30
0.0
 40
0.004
  0
CIRCLE
  5
4F
330
17
100
AcDbEntity
  8
diam_0.008m
100
AcDbCircle
 10
1.6720000000000002
 20
0.009499999999999953
 30
0.0
 40
0.004
  0
CIRCLE
  5
50
330
17
100
AcDbEntity
  8
diam_0.008m
100
AcDbCircle
 10
0.928
 20
0.009499999999999953
 30
0.0
 40
0.004
  0
CIRCLE
  5
51
330
17
100
AcDbEntity
  8
diam_0.008m
100
AcDbCircle
 10
1.608
 20
0.009499999999999953
 30
0.0
 40
0.004
  0
CIRCLE
  5
52
330
17
100
AcDbEntity
  8
diam_0.005m
100
AcDbCircle
 10
1.6400000000000001
 20
0.9905
 30
0.0
 40
0.0025
  0
CIRCLE
  5
53
330
17
100
AcDbEntity
  8
diam_0.005m
100
AcDbCircle
 10
0.96
 20
0.9905
 30
0.0
 40
0.0025
  0
CIRCLE
  5
54
330
17
100
AcDbEntity
  8
diam_0.008m
100
AcDbCircle
 10
1.608
 20
0.9905
 30
0.0
 40
0.004
  0
CIRCLE
  5
55
330
17
100
AcDbEntity
  8
diam_0.008m
100
AcDbCircle
 10
0.928
 20
0.9905
 30
0.0
 40
0.004
  0
CIRCLE
  5
56
330
17
100
AcDbEntity
  8
diam_0.008m
100
AcDbCircle
 10
1.6720000000000002
 20
0.9905
 30
0.0
 40
0.004
  0
CIRCLE
  5
57
330
17
100
AcDbEntity
  8
diam_0.008m
100
AcDbCircle
 10
0.992
 20
0.9905
 30
0.0
 40
0.004
  0
CIRCLE
  5
58
330
17
100
AcDbEntity
  8
diam_0.005m
100
AcDbCircle
 10
0.9095
 20
0.07899999999999996
 30
0.0
 40
0.0025
  0
CIRCLE
  5
59
330
17
100
AcDbEntity
  8
diam_0.005m
100
AcDbCircle
 10
0.9095
 20
0.921
 30
0.0
 40
0.0025
  0
CIRCLE
  5
5A
330
17
100
AcDbEntity
  8
diam_0.008m
100
AcDbCircle
 10
0.9095
 20
0.04700000000000004
 30
0.0
 40
0.004
  0
CIRCLE
  5
5B
330
17
100
AcDbEntity
  8
diam_0.008m
100
AcDbCircle
 10
0.9095
 20
0.889
 30
0.0
 40
0.004
  0
CIRCLE
  5
5C
330
17
100
AcDbEntity
  8
diam_0.008m
100
AcDbCircle
 10
0.9095
 20
0.11099999999999999
 30
0.0
 40
0.004
  0
CIRCLE
  5
5D
330
17
100
AcDbEntity
  8
diam_0.008m
100
AcDbCircle
 10
0.9095
 20
0.953
 30
0.0
 40
0.004
  0
CIRCLE
  5
5E
330
17
100
AcDbEntity
  8
diam_0.005m
100
AcDbCircle
 10
1.65
 20
0.5175000000000001
 30
0.0
 40
0.0025
  0
CIRCLE
  5
5F
330
17
100
AcDbEntity
  8
diam_0.005m
100
AcDbCircle
 10
0.9690000000000001
 20
0.5175000000000001
 30
0.0
 40
0.0025
  0
CIRCLE
  5
61
330
17
100
AcDbEntity
  8
diam_0.015m
100
AcDbCircle
 10
1.86
 20
0.034
 30
0.0
 40
0.0075
  0
CIRCLE
  5
62
330
17
100
AcDbEntity
  8
diam_0.015m
100
AcDbCircle
 10
2.54
 20
0.034
 30
0.0
 40
0.0075
  0
CIRCLE
  5
63
330
17
100
AcDbEntity
  8
diam_0.015m
100
AcDbCircle
 10
1.86
 20
0.928
 30
0.0
 40
0.0075
  0
CIRCLE
  5
64
330
17
100
AcDbEntity
  8
diam_0.015m
100
AcDbCircle
 10
2.54
 20
0.928
 30
0.0
 40
0.0075
  0
LWPOLYLINE
  5
65
330
17
100
AcDbEntity
  8
contour_haut
100
AcDbPolyline
 90
4
 70
1
 10
1.8
 20
0.0
 10
2.6
 20
0.0
 10
2.6
 20
0.962
 10
1.8
 20
0.962
  0
TEXT
  5
66
330
17
100
AcDbEntity
  8
texte
100
AcDbText
 10
1.8
 20
0.481
 30
0.0
 40
0.05
  1
2G1
100
AcDbText
  0
CIRCLE
  5
67
330
17
100
AcDbEntity
  8
diam_0.005m
100
AcDbCircle
 10
1.8095
 20
0.06
 30
0.0
 40
0.0025
  0
CIRCLE
  5
68
330
17
100
AcDbEntity
  8
diam_0.005m
100
AcDbCircle
 10
1.8095
 20
0.902
 30
0.0
 40
0.0025
  0
CIRCLE
  5
69
330
17
100
AcDbEntity
  8
diam_0.008m
100
AcDbCircle
 10
1.8095
 20
0.028
 30
0.0
 40
0.004
  0
CIRCLE
  5
6A
330
17
100
AcDbEntity
  8
diam_0.008m
100
AcDbCircle
 10
1.8095
 20
0.87
 30
0.0
 40
0.004
  0
CIRCLE
  5
6B
330
17
100
AcDbEntity
  8
diam_0.008m
100
AcDbCircle
 10
1.8095
 20
0.092
 30
0.0
 40
0.004
  0
CIRCLE
  5
6C
330
17
100
AcDbEntity
  8
diam_0.008m
100
AcDbCircle
 10
1.8095
 20
0.934
 30
0.0
 40
0.004
  0
CIRCLE
  5
6D
330
17
100
AcDbEntity
  8
diam_0.005m
100
AcDbCircle
 10
2.54
 20
0.481
 30
0.0
 40
0.0025
  0
CIRCLE
  5
6E
330
17
100
AcDbEntity
  8
diam_0.005m
100
AcDbCircle
 10
1.879
 20
0.481
 30
0.0
 40
0.0025
  0
CIRCLE
  5
6F
330
17
100
AcDbEntity
  8
diam_0.008m
100
AcDbCircle
 10
2.572
 20
0.481
 30
0.0
 40
0.004
  0
CIRCLE
  5
70
330
17
100
AcDbEntity
  8
diam_0.008m
100
AcDbCircle
 10
1.911
 20
0.481
 30
0.0
 40
0.004
  0
CIRCLE
  5
71
330
17
100
AcDbEntity
  8
diam_0.008m
100
AcDbCircle
 10
2.508
 20
0.481
 30
0.0
 40
0.004
  0
CIRCLE
  5
72
330
17
100
AcDbEntity
  8
diam_0.008m
100
AcDbCircle
 10
1.847
 20
0.481
 30
0.0
 40
0.004
  0
CIRCLE
  5
73
330
17
100
AcDbEntity
  8
diam_0.015m
100
AcDbCircle
 10
3.4400000000000004
 20
0.9279999999999999
 30
0.0
 40
0.0075
  0
CIRCLE
  5
74
330
17
100
AcDbEntity
  8
diam_0.015m
100
AcDbCircle
 10
2.7600000000000002
 20
0.9279999999999999
 30
0.0
 40
0.0075
  0
CIRCLE
  5
75
330
17
100
AcDbEntity
  8
diam_0.015m
100
AcDbCircle
 10
3.4400000000000004
 20
0.03399999999999992
 30
0.0
 40
0.0075
  0
CIRCLE
  5
76
330
17
100
AcDbEntity
  8
diam_0.015m
100
AcDbCircle
 10
2.7600000000000002
 20
0.03399999999999992
 30
0.0
 40
0.0075
  0
LWPOLYLINE
  5
77
330
17
100
AcDbEntity
  8
contour_haut
100
AcDbPolyline
 90
4
 70
1
 10
2.7
 20
0.962
 10
3.5
 20
0.962
 10
3.5
 20
0.0
 10
2.7
 20
0.0
  0
TEXT
  5
78
330
17
100
AcDbEntity
  8
texte
100
AcDbText
 10
2.7
 20
0.481
 30
0.0
 40
0.05
  1
3G1
100
AcDbText
  0
CIRCLE
  5
79
330
17
100
AcDbEntity
  8
diam_0.005m
100
AcDbCircle
 10
2.7095000000000002
 20
0.9019999999999999
 30
0.0
 40
0.0025
  0
CIRCLE
  5
7A
330
17
100
AcDbEntity
  8
diam_0.005m
100
AcDbCircle
 10
2.7095000000000002
 20
0.05999999999999994
 30
0.0
 40
0.0025
  0
CIRCLE
  5
7B
330
17
100
AcDbEntity
  8
diam_0.008m
100
AcDbCircle
 10
2.7095000000000002
 20
0.87
 30
0.0
 40
0.004
  0
CIRCLE
  5
7C
330
17
100
AcDbEntity
  8
diam_0.008m
100
AcDbCircle
 10
2.7095000000000002
 20
0.027999999999999914
 30
0.0
 40
0.004
  0
CIRCLE
  5
7D
330
17
100
AcDbEntity
  8
diam_0.008m
100
AcDbCircle
 10
2.7095000000000002
 20
0.9339999999999999
 30
0.0
 40
0.004
  0
CIRCLE
  5
7E
330
17
100
AcDbEntity
  8
diam_0.008m
100
AcDbCircle
 10
2.7095000000000002
 20
0.09199999999999997
 30
0.0
 40
0.004
  0
CIRCLE
  5
7F
330
17
100
AcDbEntity
  8
diam_0.015m
100
AcDbCircle
 10
4.5280000000000005
 20
0.9019999999999999
 30
0.0
 40
0.0075
  0
CIRCLE
  5
80
330
17
100
AcDbEntity
  8
diam_0.015m
100
AcDbCircle
 10
4.5280000000000005
 20
0.05999999999999994
 30
0.0
 40
0.0075
  0
CIRCLE
  5
81
330
17
100
AcDbEntity
  8
diam_0.015m
100
AcDbCircle
 10
3.6340000000000003
 20
0.9019999999999999
 30
0.0
 40
0.0075
  0
CIRCLE
  5
82
330
17
100
AcDbEntity
  8
diam_0.015m
100
AcDbCircle
 10
3.6340000000000003
 20
0.05999999999999994
 30
0.0
 40
0.0075
  0
CIRCLE
  5
83
330
17
100
AcDbEntity
  8
diam_0.015m
100
AcDbCircle
 10
4.502000000000001
 20
0.9279999999999999
 30
0.0
 40
0.0075
  0
CIRCLE
  5
84
330
17
100
AcDbEntity
  8
diam_0.015m
100
AcDbCircle
 10
3.6600000000000006
 20
0.9279999999999999
 30
0.0
 40
0.0075
  0
CIRCLE
  5
85
330
17
100
AcDbEntity
  8
diam_0.015m
100
AcDbCircle
 10
4.502000000000001
 20
0.03399999999999992
 30
0.0
 40
0.0075
  0
CIRCLE
  5
86
330
17
100
AcDbEntity
  8
diam_0.015m
100
AcDbCircle
 10
3.6600000000000006
 20
0.03399999999999992
 30
0.0
 40
0.0075
  0
LWPOLYLINE
  5
87
330
17
100
AcDbEntity
  8
contour_haut
100
AcDbPolyline
 90
4
 70
1
 10
4.562
 20
0.962
 10
3.6000000000000005
 20
0.962
 10
3.6000000000000005
 20
0.0
 10
4.562
 20
0.0
  0
TEXT
  5
88
330
17
100
AcDbEntity
  8
texte
100
AcDbText
 10
3.6000000000000005
 20
0.481
 30
0.0
 40
0.05
  1
4G1
100
AcDbText
  0
CIRCLE
  5
89
330
17
100
AcDbEntity
  8
diam_0.005m
100
AcDbCircle
 10
4.5120000000000005
 20
0.46349999999999997
 30
0.0
 40
0.0025
  0
CIRCLE
  5
8A
330
17
100
AcDbEntity
  8
diam_0.005m
100
AcDbCircle
 10
3.6500000000000004
 20
0.46349999999999997
 30
0.0
 40
0.0025
  0
CIRCLE
  5
8B
330
17
100
AcDbEntity
  8
diam_0.005m
100
AcDbCircle
 10
4.081
 20
0.9019999999999999
 30
0.0
 40
0.0025
  0
CIRCLE
  5
8C
330
17
100
AcDbEntity
  8
diam_0.005m
100
AcDbCircle
 10
4.081
 20
0.5505
 30
0.0
 40
0.0025
  0
CIRCLE
  5
8D
330
17
100
AcDbEntity
  8
diam_0.008m
100
AcDbCircle
 10
4.081
 20
0.9339999999999999
 30
0.0
 40
0.004
  0
CIRCLE
  5
8E
330
17
100
AcDbEntity
  8
diam_0.008m
100
AcDbCircle
 10
4.081
 20
0.5825
 30
0.0
 40
0.004
  0
CIRCLE
  5
8F
330
17
100
AcDbEntity
  8
diam_0.008m
100
AcDbCircle
 10
4.081
 20
0.87
 30
0.0
 40
0.004
  0
CIRCLE
  5
90
330
17
100
AcDbEntity
  8
diam_0.008m
100
AcDbCircle
 10
4.081
 20
0.5185
 30
0.0
 40
0.004
  0
CIRCLE
  5
91
330
17
100
AcDbEntity
  8
diam_0.005m
100
AcDbCircle
 10
4.712000000000001
 20
0.952
 30
0.0
 40
0.0025
  0
CIRCLE
  5
92
330
17
100
AcDbEntity
  8
diam_0.005m
100
AcDbCircle
 10
5.393000000000001
 20
0.952
 30
0.0
 40
0.0025
  0
CIRCLE
  5
93
330
17
100
AcDbEntity
  8
diam_0.005m
100
AcDbCircle
 10
4.712000000000001
 20
0.010000000000000009
 30
0.0
 40
0.0025
  0
CIRCLE
  5
94
330
17
100
AcDbEntity
  8
diam_0.005m
100
AcDbCircle
 10
5.393000000000001
 20
0.010000000000000009
 30
0.0
 40
0.0025
  0
CIRCLE
  5
95
330
17
100
AcDbEntity
  8
diam_0.005m
100
AcDbCircle
 10
5.433000000000001
 20
0.9119999999999999
 30
0.0
 40
0.0025
  0
CIRCLE
  5
96
330
17
100
AcDbEntity
  8
diam_0.005m
100
AcDbCircle
 10
5.433000000000001
 20
0.04999999999999993
 30
0.0
 40
0.0025
  0
CIRCLE
  5
97
330
17
100
AcDbEntity
  8
diam_0.005m
100
AcDbCircle
 10
4.722
 20
0.481
 30
0.0
 40
0.0025
  0
CIRCLE
  5
98
330
17
100
AcDbEntity
  8
diam_0.005m
100
AcDbCircle
 10
5.383000000000001
 20
0.481
 30
0.0
 40
0.0025
  0
CIRCLE
  5
99
330
17
100
AcDbEntity
  8
diam_0.008m
100
AcDbCircle
 10
4.7540000000000004
 20
0.481
 30
0.0
 40
0.004
  0
CIRCLE
  5
9A
330
17
100
AcDbEntity
  8
diam_0.008m
100
AcDbCircle
 10
5.415000000000001
 20
0.481
 30
0.0
 40
0.004
  0
CIRCLE
  5
9B
330
17
100
AcDbEntity
  8
diam_0.008m
100
AcDbCircle
 10
4.69
 20
0.481
 30
0.0
 40
0.004
  0
CIRCLE
  5
9C
330
17
100
AcDbEntity
  8
diam_0.008m
100
AcDbCircle
 10
5.351000000000001
 20
0.481
 30
0.0
 40
0.004
  0
LWPOLYLINE
  5
9D
330
17
100
AcDbEntity
  8
contour_haut
100
AcDbPolyline
 90
4
 70
1
 10
4.662000000000001
 20
0.962
 10
4.662000000000001
 20
0.0
 10
5.4430000000000005
 20
0.0
 10
5.4430000000000005
 20
0.962
  0
TEXT
  5
9E
330
17
100
AcDbEntity
  8
texte
100
AcDbText
 10
4.662000000000001
 20
0.481
 30
0.0
 40
0.05
  1
5G1
100
AcDbText
  0
CIRCLE
  5
9F
330
17
100
AcDbEntity
  8
diam_0.015m
100
AcDbCircle
 10
5.603
 20
0.034
 30
0.0
 40
0.0075
  0
CIRCLE
  5
A0
330
17
100
AcDbEntity
  8
diam_0.015m
100
AcDbCircle
 10
6.264
 20
0.034
 30
0.0
 40
0.0075
  0
CIRCLE
  5
A1
330
17
100
AcDbEntity
  8
diam_0.015m
100
AcDbCircle
 10
6.29
 20
0.06
 30
0.0
 40
0.0075
  0
CIRCLE
  5
A2
330
17
100
AcDbEntity
  8
diam_0.015m
100
AcDbCircle
 10
6.29
 20
0.4115
 30
0.0
 40
0.0075
  0
CIRCLE
  5
A3
330
17
100
AcDbEntity
  8
diam_0.015m
100
AcDbCircle
 10
5.603
 20
0.4375
 30
0.0
 40
0.0075
  0
CIRCLE
  5
A4
330
17
100
AcDbEntity
  8
diam_0.015m
100
AcDbCircle
 10
6.264
 20
0.4375
 30
0.0
 40
0.0075
  0
LWPOLYLINE
  5
A5
330
17
100
AcDbEntity
  8
contour_haut
100
AcDbPolyline
 90
4
 70
1
 10
5.543
 20
0.0
 10
6.324
 20
0.0
 10
6.324
 20
0.4715
 10
5.543
 20
0.4715
  0
TEXT
  5
A6
330
17
100
AcDbEntity
  8
texte
100
AcDbText
 10
5.543
 20
0.23575
 30
0.0
 40
0.05
  1
6G1
100
AcDbText
  0
CIRCLE
  5
A7
330
17
100
AcDbEntity
  8
diam_0.015m
100
AcDbCircle
 10
7.132999999999999
 20
0.3735
 30
0.0
 40
0.0075
  0
CIRCLE
  5
A8
330
17
100
AcDbEntity
  8
diam_0.015m
100
AcDbCircle
 10
7.132999999999999
 20
0.06
 30
0.0
 40
0.0075
  0
LWPOLYLINE
  5
A9
330
17
100
AcDbEntity
  8
contour_haut
100
AcDbPolyline
 90
4
 70
1
 10
6.4239999999999995
 20
0.0
 10
7.167
 20
0.0
 10
7.167
 20
0.4335
 10
6.4239999999999995
 20
0.4335
  0
TEXT
  5
AA
330
17
100
AcDbEntity
  8
texte
100
AcDbText
 10
6.4239999999999995
 20
0.21675
 30
0.0
 40
0.05
  1
8G1
100
AcDbText
  0
CIRCLE
  5
AB
330
17
100
AcDbEntity
  8
diam_0.005m
100
AcDbCircle
 10
6.4334999999999996
 20
0.06
 30
0.0
 40
0.0025
  0
CIRCLE
  5
AC
330
17
100
AcDbEntity
  8
diam_0.005m
100
AcDbCircle
 10
6.4334999999999996
 20
0.3735
 30
0.0
 40
0.0025
  0
CIRCLE
  5
AD
330
17
100
AcDbEntity
  8
diam_0.008m
100
AcDbCircle
 10
6.4334999999999996
 20
0.028
 30
0.0
 40
0.004
  0
CIRCLE
  5
AE
330
17
100
AcDbEntity
  8
diam_0.008m
100
AcDbCircle
 10
6.4334999999999996
 20
0.3415
 30
0.0
 40
0.004
  0
CIRCLE
  5
AF
330
17
100
AcDbEntity
  8
diam_0.008m
100
AcDbCircle
 10
6.4334999999999996
 20
0.092
 30
0.0
 40
0.004
  0
CIRCLE
  5
B0
330
17
100
AcDbEntity
  8
diam_0.008m
100
AcDbCircle
 10
6.4334999999999996
 20
0.4055
 30
0.0
 40
0.004
  0
CIRCLE
  5
B1
330
17
100
AcDbEntity
  8
diam_0.005m
100
AcDbCircle
 10
7.106999999999999
 20
0.424
 30
0.0
 40
0.0025
  0
CIRCLE
  5
B2
330
17
100
AcDbEntity
  8
diam_0.005m
100
AcDbCircle
 10
6.502999999999999
 20
0.424
 30
0.0
 40
0.0025
  0
CIRCLE
  5
B3
330
17
100
AcDbEntity
  8
diam_0.008m
100
AcDbCircle
 10
7.074999999999999
 20
0.424
 30
0.0
 40
0.004
  0
CIRCLE
  5
B4
330
17
100
AcDbEntity
  8
diam_0.008m
100
AcDbCircle
 10
6.470999999999999
 20
0.424
 30
0.0
 40
0.004
  0
CIRCLE
  5
B5
330
17
100
AcDbEntity
  8
diam_0.008m
100
AcDbCircle
 10
7.138999999999999
 20
0.424
 30
0.0
 40
0.004
  0
CIRCLE
  5
B6
330
17
100
AcDbEntity
  8
diam_0.008m
100
AcDbCircle
 10
6.534999999999999
 20
0.424
 30
0.0
 40
0.004
  0
CIRCLE
  5
B7
330
17
100
AcDbEntity
  8
diam_0.015m
100
AcDbCircle
 10
7.975999999999999
 20
0.06
 30
0.0
 40
0.0075
  0
CIRCLE
  5
B8
330
17
100
AcDbEntity
  8
diam_0.015m
100
AcDbCircle
 10
7.975999999999999
 20
0.3735
 30
0.0
 40
0.0075
  0
LWPOLYLINE
  5
B9
330
17
100
AcDbEntity
  8
contour_haut
100
AcDbPolyline
 90
4
 70
1
 10
7.2669999999999995
 20
0.4335
 10
8.01
 20
0.4335
 10
8.01
 20
0.0
 10
7.2669999999999995
 20
0.0
  0
TEXT
  5
BA
330
17
100
AcDbEntity
  8
texte
100
AcDbText
 10
7.2669999999999995
 20
0.21675
 30
0.0
 40
0.05
  1
9G1
100
AcDbText
  0
CIRCLE
  5
BB
330
17
100
AcDbEntity
  8
diam_0.005m
100
AcDbCircle
 10
7.2764999999999995
 20
0.3735
 30
0.0
 40
0.0025
  0
CIRCLE
  5
BC
330
17
100
AcDbEntity
  8
diam_0.005m
100
AcDbCircle
 10
7.2764999999999995
 20
0.06
 30
0.0
 40
0.0025
  0
CIRCLE
  5
BD
330
17
100
AcDbEntity
  8
diam_0.008m
100
AcDbCircle
 10
7.2764999999999995
 20
0.3415
 30
0.0
 40
0.004
  0
CIRCLE
  5
BE
330
17
100
AcDbEntity
  8
diam_0.008m
100
AcDbCircle
 10
7.2764999999999995
 20
0.02799999999999997
 30
0.0
 40
0.004
  0
CIRCLE
  5
BF
330
17
100
AcDbEntity
  8
diam_0.008m
100
AcDbCircle
 10
7.2764999999999995
 20
0.40549999999999997
 30
0.0
 40
0.004
  0
CIRCLE
  5
C0
330
17
100
AcDbEntity
  8
diam_0.008m
100
AcDbCircle
 10
7.2764999999999995
 20
0.09199999999999997
 30
0.0
 40
0.004
  0
CIRCLE
  5
C1
330
17
100
AcDbEntity
  8
diam_0.005m
100
AcDbCircle
 10
7.949999999999999
 20
0.009500000000000008
 30
0.0
 40
0.0025
  0
CIRCLE
  5
C2
330
17
100
AcDbEntity
  8
diam_0.005m
100
AcDbCircle
 10
7.345999999999999
 20
0.009500000000000008
 30
0.0
 40
0.0025
  0
CIRCLE
  5
C3
330
17
100
AcDbEntity
  8
diam_0.008m
100
AcDbCircle
 10
7.981999999999999
 20
0.009500000000000008
 30
0.0
 40
0.004
  0
CIRCLE
  5
C4
330
17
100
AcDbEntity
  8
diam_0.008m
100
AcDbCircle
 10
7.377999999999999
 20
0.009500000000000008
 30
0.0
 40
0.004
  0
CIRCLE
  5
C5
330
17
100
AcDbEntity
  8
diam_0.008m
100
AcDbCircle
 10
7.917999999999999
 20
0.009500000000000008
 30
0.0
 40
0.004
  0
CIRCLE
  5
C6
330
17
100
AcDbEntity
  8
diam_0.008m
100
AcDbCircle
 10
7.313999999999999
 20
0.009500000000000008
 30
0.0
 40
0.004
  0
CIRCLE
  5
C7
330
17
100
AcDbEntity
  8
diam_0.015m
100
AcDbCircle
 10
8.144
 20
0.3735
 30
0.0
 40
0.0075
  0
CIRCLE
  5
C8
330
17
100
AcDbEntity
  8
diam_0.015m
100
AcDbCircle
 10
8.144
 20
0.06
 30
0.0
 40
0.0075
  0
CIRCLE
  5
C9
330
17
100
AcDbEntity
  8
diam_0.015m
100
AcDbCircle
 10
8.4775
 20
0.3735
 30
0.0
 40
0.0075
  0
CIRCLE
  5
CA
330
17
100
AcDbEntity
  8
diam_0.015m
100
AcDbCircle
 10
8.4775
 20
0.06
 30
0.0
 40
0.0075
  0
LWPOLYLINE
  5
CB
330
17
100
AcDbEntity
  8
contour_haut
100
AcDbPolyline
 90
4
 70
1
 10
8.11
 20
0.4335
 10
8.11
 20
0.0
 10
8.5115
 20
0.0
 10
8.5115
 20
0.4335
  0
TEXT
  5
CC
330
17
100
AcDbEntity
  8
texte
100
AcDbText
 10
8.11
 20
0.21675
 30
0.0
 40
0.05
  1
10G1
100
AcDbText
  0
CIRCLE
  5
CD
330
17
100
AcDbEntity
  8
diam_0.005m
100
AcDbCircle
 10
8.17
 20
0.009500000000000008
 30
0.0
 40
0.0025
  0
CIRCLE
  5
CE
330
17
100
AcDbEntity
  8
diam_0.005m
100
AcDbCircle
 10
8.4515
 20
0.009500000000000008
 30
0.0
 40
0.0025
  0
CIRCLE
  5
CF
330
17
100
AcDbEntity
  8
diam_0.008m
100
AcDbCircle
 10
8.202
 20
0.009500000000000008
 30
0.0
 40
0.004
  0
CIRCLE
  5
D0
330
17
100
AcDbEntity
  8
diam_0.008m
100
AcDbCircle
 10
8.4835
 20
0.009500000000000008
 30
0.0
 40
0.004
  0
CIRCLE
  5
D1
330
17
100
AcDbEntity
  8
diam_0.008m
100
AcDbCircle
 10
8.138
 20
0.009500000000000008
 30
0.0
 40
0.004
  0
CIRCLE
  5
D2
330
17
100
AcDbEntity
  8
diam_0.008m
100
AcDbCircle
 10
8.4195
 20
0.009500000000000008
 30
0.0
 40
0.004
  0
CIRCLE
  5
D3
330
17
100
AcDbEntity
  8
diam_0.015m
100
AcDbCircle
 10
9.301499999999999
 20
0.06
 30
0.0
 40
0.0075
  0
CIRCLE
  5
D4
330
17
100
AcDbEntity
  8
diam_0.015m
100
AcDbCircle
 10
9.301499999999999
 20
0.3415
 30
0.0
 40
0.0075
  0
CIRCLE
  5
D5
330
17
100
AcDbEntity
  8
diam_0.015m
100
AcDbCircle
 10
9.2755
 20
0.034
 30
0.0
 40
0.0075
  0
CIRCLE
  5
D6
330
17
100
AcDbEntity
  8
diam_0.015m
100
AcDbCircle
 10
8.6715
 20
0.034
 30
0.0
 40
0.0075
  0
CIRCLE
  5
D7
330
17
100
AcDbEntity
  8
diam_0.015m
100
AcDbCircle
 10
9.2755
 20
0.3675
 30
0.0
 40
0.0075
  0
CIRCLE
  5
D8
330
17
100
AcDbEntity
  8
diam_0.015m
100
AcDbCircle
 10
8.6715
 20
0.3675
 30
0.0
 40
0.0075
  0
CIRCLE
  5
D9
330
17
100
AcDbEntity
  8
diam_0.015m
100
AcDbCircle
 10
8.6455
 20
0.06
 30
0.0
 40
0.0075
  0
CIRCLE
  5
DA
330
17
100
AcDbEntity
  8
diam_0.015m
100
AcDbCircle
 10
8.6455
 20
0.3415
 30
0.0
 40
0.0075
  0
LWPOLYLINE
  5
DB
330
17
100
AcDbEntity
  8
contour_haut
100
AcDbPolyline
 90
4
 70
1
 10
9.3355
 20
0.0
 10
9.3355
 20
0.4015
 10
8.6115
 20
0.4015
 10
8.6115
 20
0.0
  0
TEXT
  5
DC
330
17
100
AcDbEntity
  8
texte
100
AcDbText
 10
8.6115
 20
0.20075
 30
0.0
 40
0.05
  1
11G1
100
AcDbText
  0
CIRCLE
  5
DD
330
17
100
AcDbEntity
  8
diam_0.015m
100
AcDbCircle
 10
10.144499999999999
 20
0.3735
 30
0.0
 40
0.0075
  0
CIRCLE
  5
DE
330
17
100
AcDbEntity
  8
diam_0.015m
100
AcDbCircle
 10
10.144499999999999
 20
0.06
 30
0.0
 40
0.0075
  0
LWPOLYLINE
  5
DF
330
17
100
AcDbEntity
  8
contour_haut
100
AcDbPolyline
 90
4
 70
1
 10
9.4355
 20
0.0
 10
10.1785
 20
0.0
 10
10.1785
 20
0.4335
 10
9.4355
 20
0.4335
  0
TEXT
  5
E0
330
17
100
AcDbEntity
  8
texte
100
AcDbText
 10
9.4355
 20
0.21675
 30
0.0
 40
0.05
  1
13G1
100
AcDbText
  0
CIRCLE
  5
E1
330
17
100
AcDbEntity
  8
diam_0.005m
100
AcDbCircle
 10
9.444999999999999
 20
0.06
 30
0.0
 40
0.0025
  0
CIRCLE
  5
E2
330
17
100
AcDbEntity
  8
diam_0.005m
100
AcDbCircle
 10
9.444999999999999
 20
0.3735
 30
0.0
 40
0.0025
  0
CIRCLE
  5
E3
330
17
100
AcDbEntity
  8
diam_0.008m
100
AcDbCircle
 10
9.444999999999999
 20
0.028
 30
0.0
 40
0.004
  0
CIRCLE
  5
E4
330
17
100
AcDbEntity
  8
diam_0.008m
100
AcDbCircle
 10
9.444999999999999
 20
0.3415
 30
0.0
 40
0.004
  0
CIRCLE
  5
E5
330
17
100
AcDbEntity
  8
diam_0.008m
100
AcDbCircle
 10
9.444999999999999
 20
0.092
 30
0.0
 40
0.004
  0
CIRCLE
  5
E6
330
17
100
AcDbEntity
  8
diam_0.008m
100
AcDbCircle
 10
9.444999999999999
 20
0.4055
 30
0.0
 40
0.004
  0
CIRCLE
  5
E7
330
17
100
AcDbEntity
  8
diam_0.005m
100
AcDbCircle
 10
10.1185
 20
0.424
 30
0.0
 40
0.0025
  0
CIRCLE
  5
E8
330
17
100
AcDbEntity
  8
diam_0.005m
100
AcDbCircle
 10
9.5145
 20
0.424
 30
0.0
 40
0.0025
  0
CIRCLE
  5
E9
330
17
100
AcDbEntity
  8
diam_0.008m
100
AcDbCircle
 10
10.0865
 20
0.424
 30
0.0
 40
0.004
  0
CIRCLE
  5
EA
330
17
100
AcDbEntity
  8
diam_0.008m
100
AcDbCircle
 10
9.4825
 20
0.424
 30
0.0
 40
0.004
  0
CIRCLE
  5
EB
330
17
100
AcDbEntity
  8
diam_0.008m
100
AcDbCircle
 10
10.1505
 20
0.424
 30
0.0
 40
0.004
  0
CIRCLE
  5
EC
330
17
100
AcDbEntity
  8
diam_0.008m
100
AcDbCircle
 10
9.5465
 20
0.424
 30
0.0
 40
0.004
  0
CIRCLE
  5
ED
330
17
100
AcDbEntity
  8
diam_0.015m
100
AcDbCircle
 10
10.987499999999999
 20
0.06
 30
0.0
 40
0.0075
  0
CIRCLE
  5
EE
330
17
100
AcDbEntity
  8
diam_0.015m
100
AcDbCircle
 10
10.987499999999999
 20
0.3735
 30
0.0
 40
0.0075
  0
LWPOLYLINE
  5
EF
330
17
100
AcDbEntity
  8
contour_haut
100
AcDbPolyline
 90
4
 70
1
 10
10.2785
 20
0.4335
 10
11.0215
 20
0.4335
 10
11.0215
 20
0.0
 10
10.2785
 20
0.0
  0
TEXT
  5
F0
330
17
100
AcDbEntity
  8
texte
100
AcDbText
 10
10.2785
 20
0.21675
 30
0.0
 40
0.05
  1
14G1
100
AcDbText
  0
CIRCLE
  5
F1
330
17
100
AcDbEntity
  8
diam_0.005m
100
AcDbCircle
 10
10.287999999999998
 20
0.3735
 30
0.0
 40
0.0025
  0
CIRCLE
  5
F2
330
17
100
AcDbEntity
  8
diam_0.005m
100
AcDbCircle
 10
10.287999999999998
 20
0.06
 30
0.0
 40
0.0025
  0
CIRCLE
  5
F3
330
17
100
AcDbEntity
  8
diam_0.008m
100
AcDbCircle
 10
10.287999999999998
 20
0.3415
 30
0.0
 40
0.004
  0
CIRCLE
  5
F4
330
17
100
AcDbEntity
  8
diam_0.008m
100
AcDbCircle
 10
10.287999999999998
 20
0.02799999999999997
 30
0.0
 40
0.004
  0
CIRCLE
  5
F5
330
17
100
AcDbEntity
  8
diam_0.008m
100
AcDbCircle
 10
10.287999999999998
 20
0.40549999999999997
 30
0.0
 40
0.004
  0
CIRCLE
  5
F6
330
17
100
AcDbEntity
  8
diam_0.008m
100
AcDbCircle
 10
10.287999999999998
 20
0.09199999999999997
 30
0.0
 40
0.004
  0
CIRCLE
  5
F7
330
17
100
AcDbEntity
  8
diam_0.005m
100
AcDbCircle
 10
10.9615
 20
0.009500000000000008
 30
0.0
 40
0.0025
  0
CIRCLE
  5
F8
330
17
100
AcDbEntity
  8
diam_0.005m
100
AcDbCircle
 10
10.3575
 20
0.009500000000000008
 30
0.0
 40
0.0025
  0
CIRCLE
  5
F9
330
17
100
AcDbEntity
  8
diam_0.008m
100
AcDbCircle
 10
10.9935
 20
0.009500000000000008
 30
0.0
 40
0.004
  0
CIRCLE
  5
FA
330
17
100
AcDbEntity
  8
diam_0.008m
100
AcDbCircle
 10
10.3895
 20
0.009500000000000008
 30
0.0
 40
0.004
  0
CIRCLE
  5
FB
330
17
100
AcDbEntity
  8
diam_0.008m
100
AcDbCircle
 10
10.929499999999999
 20
0.009500000000000008
 30
0.0
 40
0.004
  0
CIRCLE
  5
FC
330
17
100
AcDbEntity
  8
diam_0.008m
100
AcDbCircle
 10
10.3255
 20
0.009500000000000008
 30
0.0
 40
0.004
  0
CIRCLE
  5
FD
330
17
100
AcDbEntity
  8
diam_0.015m
100
AcDbCircle
 10
11.1555
 20
0.3735
 30
0.0
 40
0.0075
  0
CIRCLE
  5
FE
330
17
100
AcDbEntity
  8
diam_0.015m
100
AcDbCircle
 10
11.1555
 20
0.06
 30
0.0
 40
0.0075
  0
CIRCLE
  5
FF
330
17
100
AcDbEntity
  8
diam_0.015m
100
AcDbCircle
 10
11.9795
 20
0.3735
 30
0.0
 40
0.0075
  0
CIRCLE
  5
100
330
17
100
AcDbEntity
  8
diam_0.015m
100
AcDbCircle
 10
11.9795
 20
0.06
 30
0.0
 40
0.0075
  0
LWPOLYLINE
  5
101
330
17
100
AcDbEntity
  8
contour_haut
100
AcDbPolyline
 90
4
 70
1
 10
11.1215
 20
0.4335
 10
11.1215
 20
0.0
 10
12.013499999999999
 20
0.0
 10
12.013499999999999
 20
0.4335
  0
TEXT
  5
102
330
17
100
AcDbEntity
  8
texte
100
AcDbText
 10
11.1215
 20
0.21675
 30
0.0
 40
0.05
  1
15G1
100
AcDbText
  0
CIRCLE
  5
103
330
17
100
AcDbEntity
  8
diam_0.005m
100
AcDbCircle
 10
11.1815
 20
0.009500000000000008
 30
0.0
 40
0.0025
  0
CIRCLE
  5
104
330
17
100
AcDbEntity
  8
diam_0.005m
100
AcDbCircle
 10
11.9535
 20
0.009500000000000008
 30
0.0
 40
0.0025
  0
CIRCLE
  5
105
330
17
100
AcDbEntity
  8
diam_0.008m
100
AcDbCircle
 10
11.2135
 20
0.009500000000000008
 30
0.0
 40
0.004
  0
CIRCLE
  5
106
330
17
100
AcDbEntity
  8
diam_0.008m
100
AcDbCircle
 10
11.9855
 20
0.009500000000000008
 30
0.0
 40
0.004
  0
CIRCLE
  5
107
330
17
100
AcDbEntity
  8
diam_0.008m
100
AcDbCircle
 10
11.1495
 20
0.009500000000000008
 30
0.0
 40
0.004
  0
CIRCLE
  5
108
330
17
100
AcDbEntity
  8
diam_0.008m
100
AcDbCircle
 10
11.9215
 20
0.009500000000000008
 30
0.0
 40
0.004
  0
CIRCLE
  5
109
330
17
100
AcDbEntity
  8
diam_0.015m
100
AcDbCircle
 10
12.803499999999998
 20
0.06
 30
0.0
 40
0.0075
  0
CIRCLE
  5
10A
330
17
100
AcDbEntity
  8
diam_0.015m
100
AcDbCircle
 10
12.803499999999998
 20
0.832
 30
0.0
 40
0.0075
  0
CIRCLE
  5
10B
330
17
100
AcDbEntity
  8
diam_0.015m
100
AcDbCircle
 10
12.777499999999998
 20
0.034
 30
0.0
 40
0.0075
  0
CIRCLE
  5
10C
330
17
100
AcDbEntity
  8
diam_0.015m
100
AcDbCircle
 10
12.173499999999999
 20
0.034
 30
0.0
 40
0.0075
  0
CIRCLE
  5
10D
330
17
100
AcDbEntity
  8
diam_0.015m
100
AcDbCircle
 10
12.777499999999998
 20
0.858
 30
0.0
 40
0.0075
  0
CIRCLE
  5
10E
330
17
100
AcDbEntity
  8
diam_0.015m
100
AcDbCircle
 10
12.173499999999999
 20
0.858
 30
0.0
 40
0.0075
  0
CIRCLE
  5
10F
330
17
100
AcDbEntity
  8
diam_0.015m
100
AcDbCircle
 10
12.147499999999999
 20
0.06
 30
0.0
 40
0.0075
  0
CIRCLE
  5
110
330
17
100
AcDbEntity
  8
diam_0.015m
100
AcDbCircle
 10
12.147499999999999
 20
0.832
 30
0.0
 40
0.0075
  0
LWPOLYLINE
  5
111
330
17
100
AcDbEntity
  8
contour_haut
100
AcDbPolyline
 90
4
 70
1
 10
12.837499999999999
 20
0.0
 10
12.837499999999999
 20
0.892
 10
12.113499999999998
 20
0.892
 10
12.113499999999998
 20
0.0
  0
TEXT
  5
112
330
17
100
AcDbEntity
  8
texte
100
AcDbText
 10
12.113499999999998
 20
0.446
 30
0.0
 40
0.05
  1
16G1
100
AcDbText
  0
LWPOLYLINE
  5
113
330
17
100
AcDbEntity
  8
contour_haut
100
AcDbPolyline
 90
4
 70
1
 10
12.937499999999998
 20
4.0
 10
13.402999999999999
 20
4.0
 10
13.402999999999999
 20
4.4655000000000005
 10
12.937499999999998
 20
4.4655000000000005
  0
TEXT
  5
114
330
17
100
AcDbEntity
  8
texte
100
AcDbText
 10
12.937499999999998
 20
4.23275
 30
0.0
 40
0.05
  1
7G2
100
AcDbText
  0
CIRCLE
  5
115
330
17
100
AcDbEntity
  8
diam_0.005m
100
AcDbCircle
 10
12.959999999999999
 20
4.4035
 30
0.0
 40
0.0025
  0
CIRCLE
  5
116
330
17
100
AcDbEntity
  8
diam_0.005m
100
AcDbCircle
 10
12.959999999999999
 20
4.09
 30
0.0
 40
0.0025
  0
CIRCLE
  5
117
330
17
100
AcDbEntity
  8
diam_0.008m
100
AcDbCircle
 10
12.959999999999999
 20
4.3715
 30
0.0
 40
0.004
  0
CIRCLE
  5
118
330
17
100
AcDbEntity
  8
diam_0.008m
100
AcDbCircle
 10
12.959999999999999
 20
4.058
 30
0.0
 40
0.004
  0
CIRCLE
  5
119
330
17
100
AcDbEntity
  8
diam_0.008m
100
AcDbCircle
 10
12.959999999999999
 20
4.4355
 30
0.0
 40
0.004
  0
CIRCLE
  5
11A
330
17
100
AcDbEntity
  8
diam_0.008m
100
AcDbCircle
 10
12.959999999999999
 20
4.122
 30
0.0
 40
0.004
  0
CIRCLE
  5
11B
330
17
100
AcDbEntity
  8
diam_0.005m
100
AcDbCircle
 10
13.380499999999998
 20
4.4035
 30
0.0
 40
0.0025
  0
CIRCLE
  5
11C
330
17
100
AcDbEntity
  8
diam_0.005m
100
AcDbCircle
 10
13.380499999999998
 20
4.09
 30
0.0
 40
0.0025
  0
CIRCLE
  5
11D
330
17
100
AcDbEntity
  8
diam_0.008m
100
AcDbCircle
 10
13.380499999999998
 20
4.4355
 30
0.0
 40
0.004
  0
CIRCLE
  5
11E
330
17
100
AcDbEntity
  8
diam_0.008m
100
AcDbCircle
 10
13.380499999999998
 20
4.122
 30
0.0
 40
0.004
  0
CIRCLE
  5
11F
330
17
100
AcDbEntity
  8
diam_0.008m
100
AcDbCircle
 10
13.380499999999998
 20
4.3715
 30
0.0
 40
0.004
  0
CIRCLE
  5
120
330
17
100
AcDbEntity
  8
diam_0.008m
100
AcDbCircle
 10
13.380499999999998
 20
4.058
 30
0.0
 40
0.004
  0
CIRCLE
  5
121
330
17
100
AcDbEntity
  8
diam_0.005m
100
AcDbCircle
 10
13.029499999999999
 20
4.454
 30
0.0
 40
0.0025
  0
CIRCLE
  5
122
330
17
100
AcDbEntity
  8
diam_0.005m
100
AcDbCircle
 10
13.310999999999998
 20
4.454
 30
0.0
 40
0.0025
  0
CIRCLE
  5
123
330
17
100
AcDbEntity
  8
diam_0.008m
100
AcDbCircle
 10
12.997499999999999
 20
4.454
 30
0.0
 40
0.004
  0
CIRCLE
  5
124
330
17
100
AcDbEntity
  8
diam_0.008m
100
AcDbCircle
 10
13.278999999999998
 20
4.454
 30
0.0
 40
0.004
  0
CIRCLE
  5
125
330
17
100
AcDbEntity
  8
diam_0.008m
100
AcDbCircle
 10
13.061499999999999
 20
4.454
 30
0.0
 40
0.004
  0
CIRCLE
  5
126
330
17
100
AcDbEntity
  8
diam_0.008m
100
AcDbCircle
 10
13.342999999999998
 20
4.454
 30
0.0
 40
0.004
  0
LWPOLYLINE
  5
127
330
17
100
AcDbEntity
  8
contour_haut
100
AcDbPolyline
 90
4
 70
1
 10
13.502999999999998
 20
4.0
 10
14.458999999999998
 20
4.0
 10
14.458999999999998
 20
4.4655000000000005
 10
13.502999999999998
 20
4.4655000000000005
  0
TEXT
  5
128
330
17
100
AcDbEntity
  8
texte
100
AcDbText
 10
13.502999999999998
 20
4.23275
 30
0.0
 40
0.05
  1
12G2
100
AcDbText
  0
CIRCLE
  5
129
330
17
100
AcDbEntity
  8
diam_0.005m
100
AcDbCircle
 10
13.5255
 20
4.4035
 30
0.0
 40
0.0025
  0
CIRCLE
  5
12A
330
17
100
AcDbEntity
  8
diam_0.005m
100
AcDbCircle
 10
13.5255
 20
4.09
 30
0.0
 40
0.0025
  0
CIRCLE
  5
12B
330
17
100
AcDbEntity
  8
diam_0.008m
100
AcDbCircle
 10
13.5255
 20
4.3715
 30
0.0
 40
0.004
  0
CIRCLE
  5
12C
330
17
100
AcDbEntity
  8
diam_0.008m
100
AcDbCircle
 10
13.5255
 20
4.058
 30
0.0
 40
0.004
  0
CIRCLE
  5
12D
330
17
100
AcDbEntity
  8
diam_0.008m
100
AcDbCircle
 10
13.5255
 20
4.4355
 30
0.0
 40
0.004
  0
CIRCLE
  5
12E
330
17
100
AcDbEntity
  8
diam_0.008m
100
AcDbCircle
 10
13.5255
 20
4.122
 30
0.0
 40
0.004
  0
CIRCLE
  5
12F
330
17
100
AcDbEntity
  8
diam_0.005m
100
AcDbCircle
 10
14.436499999999999
 20
4.4035
 30
0.0
 40
0.0025
  0
CIRCLE
  5
130
330
17
100
AcDbEntity
  8
diam_0.005m
100
AcDbCircle
 10
14.436499999999999
 20
4.09
 30
0.0
 40
0.0025
  0
CIRCLE
  5
131
330
17
100
AcDbEntity
  8
diam_0.008m
100
AcDbCircle
 10
14.436499999999999
 20
4.4355
 30
0.0
 40
0.004
  0
CIRCLE
  5
132
330
17
100
AcDbEntity
  8
diam_0.008m
100
AcDbCircle
 10
14.436499999999999
 20
4.122
 30
0.0
 40
0.004
  0
CIRCLE
  5
133
330
17
100
AcDbEntity
  8
diam_0.008m
100
AcDbCircle
 10
14.436499999999999
 20
4.3715
 30
0.0
 40
0.004
  0
CIRCLE
  5
134
330
17
100
AcDbEntity
  8
diam_0.008m
100
AcDbCircle
 10
14.436499999999999
 20
4.058
 30
0.0
 40
0.004
  0
CIRCLE
  5
135
330
17
100
AcDbEntity
  8
diam_0.005m
100
AcDbCircle
 10
13.594999999999999
 20
4.454
 30
0.0
 40
0.0025
  0
CIRCLE
  5
136
330
17
100
AcDbEntity
  8
diam_0.005m
100
AcDbCircle
 10
14.366999999999999
 20
4.454
 30
0.0
 40
0.0025
  0
CIRCLE
  5
137
330
17
100
AcDbEntity
  8
diam_0.008m
100
AcDbCircle
 10
13.562999999999999
 20
4.454
 30
0.0
 40
0.004
  0
CIRCLE
  5
138
330
17
100
AcDbEntity
  8
diam_0.008m
100
AcDbCircle
 10
14.334999999999999
 20
4.454
 30
0.0
 40
0.004
  0
CIRCLE
  5
139
330
17
100
AcDbEntity
  8
diam_0.008m
100
AcDbCircle
 10
13.626999999999999
 20
4.454
 30
0.0
 40
0.004
  0
CIRCLE
  5
13A
330
17
100
AcDbEntity
  8
diam_0.008m
100
AcDbCircle
 10
14.399
 20
4.454
 30
0.0
 40
0.004
  0
ENDSEC
  0
SECTION
  2
OBJECTS
  0
DICTIONARY
  5
A
330
0
100
AcDbDictionary
281
1
  3
ACAD_COLOR
350
B
  3
ACAD_GROUP
350
C
  3
ACAD_LAYOUT
350
D
  3
ACAD_MATERIAL
350
E
  3
ACAD_MLEADERSTYLE
350
F
  3
ACAD_MLINESTYLE
350
10
  3
ACAD_PLOTSETTINGS
350
11
  3
ACAD_PLOTSTYLENAME
350
12
  3
ACAD_SCALELIST
350
14
  3
ACAD_TABLESTYLE
350
15
  3
ACAD_VISUALSTYLE
350
16
  3
EZDXF_META
350
2D
  0
DICTIONARY
  5
B
330
A
100
AcDbDictionary
281
1
  0
DICTIONARY
  5
C
330
A
100
AcDbDictionary
281
1
  0
DICTIONARY
  5
D
330
A
100
AcDbDictionary
281
1
  3
Model
350
1A
  3
Layout1
350
1E
  0
DICTIONARY
  5
E
330
A
100
AcDbDictionary
281
1
  3
ByBlock
350
1F
  3
ByLayer
350
20
  3
Global
350
21
  0
DICTIONARY
  5
F
330
A
100
AcDbDictionary
281
1
  3
Standard
350
2C
  0
DICTIONARY
  5
10
330
A
100
AcDbDictionary
281
1
  3
Standard
350
22
  0
DICTIONARY
  5
11
330
A
100
AcDbDictionary
281
1
  0
ACDBDICTIONARYWDFLT
  5
12
330
A
100
AcDbDictionary
281
1
  3
Normal
350
13
100
AcDbDictionaryWithDefault
340
13
  0
ACDBPLACEHOLDER
  5
13
330
12
  0
DICTIONARY
  5
14
330
A
100
AcDbDictionary
281
1
  0
DICTIONARY
  5
15
330
A
100
AcDbDictionary
281
1
  0
DICTIONARY
  5
16
330
A
100
AcDbDictionary
281
1
  0
LAYOUT
  5
1A
330
D
100
AcDbPlotSettings
  1

  4
A3
  6

 40
7.5
 41
20.0
 42
7.5
 43
20.0
 44
420.0
 45
297.0
 46
0.0
 47
0.0
 48
0.0
 49
0.0
140
0.0
141
0.0
142
1.0
143
1.0
 70
1024
 72
1
 73
0
 74
5
  7

 75
16
 76
0
 77
2
 78
300
147
1.0
148
0.0
149
0.0
100
AcDbLayout
  1
Model
 70
1
 71
0
 10
0.0
 20
0.0
 11
420.0
 21
297.0
 12
0.0
 22
0.0
 32
0.0
 14
1e+20
 24
1e+20
 34
1e+20
 15
-1e+20
 25
-1e+20
 35
-1e+20
146
0.0
 13
0.0
 23
0.0
 33
0.0
 16
1.0
 26
0.0
 36
0.0
 17
0.0
 27
1.0
 37
0.0
 76
1
330
17
  0
LAYOUT
  5
1E
330
D
100
AcDbPlotSettings
  1

  4
A3
  6

 40
7.5
 41
20.0
 42
7.5
 43
20.0
 44
420.0
 45
297.0
 46
0.0
 47
0.0
 48
0.0
 49
0.0
140
0.0
141
0.0
142
1.0
143
1.0
 70
0
 72
1
 73
0
 74
5
  7

 75
16
 76
0
 77
2
 78
300
147
1.0
148
0.0
149
0.0
100
AcDbLayout
  1
Layout1
 70
1
 71
1
 10
0.0
 20
0.0
 11
420.0
 21
297.0
 12
0.0
 22
0.0
 32
0.0
 14
1e+20
 24
1e+20
 34
1e+20
 15
-1e+20
 25
-1e+20
 35
-1e+20
146
0.0
 13
0.0
 23
0.0
 33
0.0
 16
1.0
 26
0.0
 36
0.0
 17
0.0
 27
1.0
 37
0.0
 76
1
330
1B
  0
MATERIAL
  5
1F
102
{ACAD_REACTORS
330
E
102
}
330
E
100
AcDbMaterial
  1
ByBlock
  2

 70
0
 40
1.0
 71
1
 41
1.0
 91
-1023410177
 42
1.0
 72
1
  3

 73
1
 74
1
 75
1
 44
0.5
 73
0
 45
1.0
 46
1.0
 77
1
  4

 78
1
 79
1
170
1
 48
1.0
171
1
  6

172
1
173
1
174
1
140
1.0
141
1.0
175
1
  7

176
1
177
1
178
1
143
1.0
179
1
  8

270
1
271
1
272
1
145
1.0
146
1.0
273
1
  9

274
1
275
1
276
1
 42
1.0
 72
1
  3

 73
1
 74
1
 75
1
 94
63
  0
MATERIAL
  5
20
102
{ACAD_REACTORS
330
E
102
}
330
E
100
AcDbMaterial
  1
ByLayer
  2

 70
0
 40
1.0
 71
1
 41
1.0
 91
-1023410177
 42
1.0
 72
1
  3

 73
1
 74
1
 75
1
 44
0.5
 73
0
 45
1.0
 46
1.0
 77
1
  4

 78
1
 79
1
170
1
 48
1.0
171
1
  6

172
1
173
1
174
1
140
1.0
141
1.0
175
1
  7

176
1
177
1
178
1
143
1.0
179
1
  8

270
1
271
1
272
1
145
1.0
146
1.0
273
1
  9

274
1
275
1
276
1
 42
1.0
 72
1
  3

 73
1
 74
1
 75
1
 94
63
  0
MATERIAL
  5
21
102
{ACAD_REACTORS
330
E
102
}
330
E
100
AcDbMaterial
  1
Global
  2

 70
0
 40
1.0
 71
1
 41
1.0
 91
-1023410177
 42
1.0
 72
1
  3

 73
1
 74
1
 75
1
 44
0.5
 73
0
 45
1.0
 46
1.0
 77
1
  4

 78
1
 79
1
170
1
 48
1.0
171
1
  6

172
1
173
1
174
1
140
1.0
141
1.0
175
1
  7

176
1
177
1
178
1
143
1.0
179
1
  8

270
1
271
1
272
1
145
1.0
146
1.0
273
1
  9

274
1
275
1
276
1
 42
1.0
 72
1
  3

 73
1
 74
1
 75
1
 94
63
  0
MLINESTYLE
  5
22
102
{ACAD_REACTORS
330
10
102
}
330
10
100
AcDbMlineStyle
  2
Standard
 70
0
  3

 62
256
 51
90.0
 52
90.0
 71
2
 49
0.5
 62
256
  6
BYLAYER
 49
-0.5
 62
256
  6
BYLAYER
  0
MLEADERSTYLE
  5
2C
102
{ACAD_REACTORS
330
F
102
}
330
F
100
AcDbMLeaderStyle
179
2
170
2
171
1
172
0
 90
2
 40
0.0
 41
0.0
173
1
 91
-1056964608
 92
-2
290
1
 42
2.0
291
1
 43
8.0
  3
Standard
 44
4.0
300

342
29
174
1
175
1
176
0
178
1
 93
-1056964608
 45
4.0
292
0
297
0
 46
4.0
 94
-1056964608
 47
1.0
 49
1.0
140
1.0
294
1
141
0.0
177
0
142
1.0
295
0
296
0
143
3.75
271
0
272
9
273
9
  0
DICTIONARY
  5
2D
330
A
100
AcDbDictionary
280
1
281
1
  3
CREATED_BY_EZDXF
350
2E
  3
WRITTEN_BY_EZDXF
350
13D
  0
DICTIONARYVAR
  5
2E
330
2D
100
DictionaryVariables
280
0
  1
1.4.3 @ 2025-10-19T20:47:21.637087+00:00
  0
DICTIONARYVAR
  5
13D
330
2D
100
DictionaryVariables
280
0
  1
1.4.3 @ 2025-10-19T20:47:21.698727+00:00
  0
ENDSEC
  0
EOF
