<?xml version="1.0" encoding="utf-8" ?>
<svg baseProfile="tiny" height="100%" version="1.2" width="100%" xmlns="http://www.w3.org/2000/svg" xmlns:ev="http://www.w3.org/2001/xml-events" xmlns:xlink="http://www.w3.org/1999/xlink"><defs /><g fill="none" id="panneau"><rect fill="none" height="280" stroke="blue" stroke-width="1" width="200" x="0" y="0" /></g><g fill="none" id="planche_0"><polyline fill="none" points="201.0,1.0 281.0,1.0 281.0,101.0 201.0,101.0 201.0,1.0" stroke="black" stroke-width="1" /><circle cx="207.0" cy="100.05" r="0.25" stroke="pink" stroke-width="1" /><circle cx="275.0" cy="100.05" r="0.25" stroke="pink" stroke-width="1" /><circle cx="203.8" cy="100.05" r="0.4" stroke="red" stroke-width="1" /><circle cx="271.8" cy="100.05" r="0.4" stroke="red" stroke-width="1" /><circle cx="210.2" cy="100.05" r="0.4" stroke="red" stroke-width="1" /><circle cx="278.2" cy="100.05" r="0.4" stroke="red" stroke-width="1" /><circle cx="275.0" cy="1.95" r="0.25" stroke="pink" stroke-width="1" /><circle cx="207.0" cy="1.95" r="0.25" stroke="pink" stroke-width="1" /><circle cx="278.2" cy="1.95" r="0.4" stroke="red" stroke-width="1" /><circle cx="210.2" cy="1.95" r="0.4" stroke="red" stroke-width="1" /><circle cx="271.8" cy="1.95" r="0.4" stroke="red" stroke-width="1" /><circle cx="203.8" cy="1.95" r="0.4" stroke="red" stroke-width="1" /><circle cx="201.95" cy="93.1" r="0.25" stroke="pink" stroke-width="1" /><circle cx="201.95" cy="8.9" r="0.25" stroke="pink" stroke-width="1" /><circle cx="201.95" cy="89.9" r="0.4" stroke="red" stroke-width="1" /><circle cx="201.95" cy="5.7" r="0.4" stroke="red" stroke-width="1" /><circle cx="201.95" cy="96.3" r="0.4" stroke="red" stroke-width="1" /><circle cx="201.95" cy="12.1" r="0.4" stroke="red" stroke-width="1" /><circle cx="276.0" cy="49.25" r="0.25" stroke="red" stroke-width="1" /><circle cx="207.9" cy="49.25" r="0.25" stroke="red" stroke-width="1" /></g><g fill="none" id="planche_1"><polyline fill="none" points="283.0,101.0 363.0,101.0 363.0,1.0 283.0,1.0 283.0,101.0" stroke="black" stroke-width="1" /><circle cx="289.0" cy="1.95" r="0.25" stroke="pink" stroke-width="1" /><circle cx="357.0" cy="1.95" r="0.25" stroke="pink" stroke-width="1" /><circle cx="292.2" cy="1.95" r="0.4" stroke="red" stroke-width="1" /><circle cx="360.2" cy="1.95" r="0.4" stroke="red" stroke-width="1" /><circle cx="285.8" cy="1.95" r="0.4" stroke="red" stroke-width="1" /><circle cx="353.8" cy="1.95" r="0.4" stroke="red" stroke-width="1" /><circle cx="357.0" cy="100.05" r="0.25" stroke="pink" stroke-width="1" /><circle cx="289.0" cy="100.05" r="0.25" stroke="pink" stroke-width="1" /><circle cx="353.8" cy="100.05" r="0.4" stroke="red" stroke-width="1" /><circle cx="285.8" cy="100.05" r="0.4" stroke="red" stroke-width="1" /><circle cx="360.2" cy="100.05" r="0.4" stroke="red" stroke-width="1" /><circle cx="292.2" cy="100.05" r="0.4" stroke="red" stroke-width="1" /><circle cx="283.95" cy="8.9" r="0.25" stroke="pink" stroke-width="1" /><circle cx="283.95" cy="93.1" r="0.25" stroke="pink" stroke-width="1" /><circle cx="283.95" cy="5.7" r="0.4" stroke="red" stroke-width="1" /><circle cx="283.95" cy="89.9" r="0.4" stroke="red" stroke-width="1" /><circle cx="283.95" cy="12.1" r="0.4" stroke="red" stroke-width="1" /><circle cx="283.95" cy="96.3" r="0.4" stroke="red" stroke-width="1" /><circle cx="358.0" cy="52.75" r="0.25" stroke="red" stroke-width="1" /><circle cx="289.9" cy="52.75" r="0.25" stroke="red" stroke-width="1" /></g><g fill="none" id="planche_2"><circle cx="371.0" cy="4.4" r="0.75" stroke="green" stroke-width="1" /><circle cx="439.0" cy="4.4" r="0.75" stroke="green" stroke-width="1" /><circle cx="371.0" cy="93.8" r="0.75" stroke="green" stroke-width="1" /><circle cx="439.0" cy="93.8" r="0.75" stroke="green" stroke-width="1" /><polyline fill="none" points="365.0,1.0 445.0,1.0 445.0,97.2 365.0,97.2 365.0,1.0" stroke="black" stroke-width="1" /><circle cx="365.95" cy="7.0" r="0.25" stroke="pink" stroke-width="1" /><circle cx="365.95" cy="91.2" r="0.25" stroke="pink" stroke-width="1" /><circle cx="365.95" cy="3.8" r="0.4" stroke="red" stroke-width="1" /><circle cx="365.95" cy="88.0" r="0.4" stroke="red" stroke-width="1" /><circle cx="365.95" cy="10.2" r="0.4" stroke="red" stroke-width="1" /><circle cx="365.95" cy="94.4" r="0.4" stroke="red" stroke-width="1" /><circle cx="439.0" cy="49.1" r="0.25" stroke="pink" stroke-width="1" /><circle cx="372.9" cy="49.1" r="0.25" stroke="pink" stroke-width="1" /><circle cx="442.2" cy="49.1" r="0.4" stroke="red" stroke-width="1" /><circle cx="376.1" cy="49.1" r="0.4" stroke="red" stroke-width="1" /><circle cx="435.8" cy="49.1" r="0.4" stroke="red" stroke-width="1" /><circle cx="369.7" cy="49.1" r="0.4" stroke="red" stroke-width="1" /></g><g fill="none" id="planche_3"><circle cx="521.0" cy="93.8" r="0.75" stroke="green" stroke-width="1" /><circle cx="453.0" cy="93.8" r="0.75" stroke="green" stroke-width="1" /><circle cx="521.0" cy="4.4" r="0.75" stroke="green" stroke-width="1" /><circle cx="453.0" cy="4.4" r="0.75" stroke="green" stroke-width="1" /><polyline fill="none" points="447.0,97.2 527.0,97.2 527.0,1.0 447.0,1.0 447.0,97.2" stroke="black" stroke-width="1" /><circle cx="447.95" cy="91.2" r="0.25" stroke="pink" stroke-width="1" /><circle cx="447.95" cy="7.0" r="0.25" stroke="pink" stroke-width="1" /><circle cx="447.95" cy="88.0" r="0.4" stroke="red" stroke-width="1" /><circle cx="447.95" cy="3.8" r="0.4" stroke="red" stroke-width="1" /><circle cx="447.95" cy="94.4" r="0.4" stroke="red" stroke-width="1" /><circle cx="447.95" cy="10.2" r="0.4" stroke="red" stroke-width="1" /></g><g fill="none" id="planche_4"><circle cx="621.8" cy="91.2" r="0.75" stroke="green" stroke-width="1" /><circle cx="621.8" cy="7.0" r="0.75" stroke="green" stroke-width="1" /><circle cx="532.4" cy="91.2" r="0.75" stroke="green" stroke-width="1" /><circle cx="532.4" cy="7.0" r="0.75" stroke="green" stroke-width="1" /><circle cx="619.2" cy="93.8" r="0.75" stroke="green" stroke-width="1" /><circle cx="535.0" cy="93.8" r="0.75" stroke="green" stroke-width="1" /><circle cx="619.2" cy="4.4" r="0.75" stroke="green" stroke-width="1" /><circle cx="535.0" cy="4.4" r="0.75" stroke="green" stroke-width="1" /><polyline fill="none" points="625.2,97.2 529.0,97.2 529.0,1.0 625.2,1.0 625.2,97.2" stroke="black" stroke-width="1" /><circle cx="620.2" cy="47.35" r="0.25" stroke="red" stroke-width="1" /><circle cx="534.0" cy="47.35" r="0.25" stroke="red" stroke-width="1" /><circle cx="577.1" cy="91.2" r="0.25" stroke="pink" stroke-width="1" /><circle cx="577.1" cy="56.05" r="0.25" stroke="pink" stroke-width="1" /><circle cx="577.1" cy="94.4" r="0.4" stroke="red" stroke-width="1" /><circle cx="577.1" cy="59.25" r="0.4" stroke="red" stroke-width="1" /><circle cx="577.1" cy="88.0" r="0.4" stroke="red" stroke-width="1" /><circle cx="577.1" cy="52.85" r="0.4" stroke="red" stroke-width="1" /></g><g fill="none" id="planche_5"><circle cx="632.2" cy="96.2" r="0.25" stroke="red" stroke-width="1" /><circle cx="700.3" cy="96.2" r="0.25" stroke="red" stroke-width="1" /><circle cx="632.2" cy="2.0" r="0.25" stroke="red" stroke-width="1" /><circle cx="700.3" cy="2.0" r="0.25" stroke="red" stroke-width="1" /><circle cx="704.3" cy="92.2" r="0.25" stroke="red" stroke-width="1" /><circle cx="704.3" cy="6.0" r="0.25" stroke="red" stroke-width="1" /><circle cx="633.2" cy="49.1" r="0.25" stroke="pink" stroke-width="1" /><circle cx="699.3" cy="49.1" r="0.25" stroke="pink" stroke-width="1" /><circle cx="636.4" cy="49.1" r="0.4" stroke="red" stroke-width="1" /><circle cx="702.5" cy="49.1" r="0.4" stroke="red" stroke-width="1" /><circle cx="630.0" cy="49.1" r="0.4" stroke="red" stroke-width="1" /><circle cx="696.1" cy="49.1" r="0.4" stroke="red" stroke-width="1" /><polyline fill="none" points="627.2,97.2 627.2,1.0 705.3,1.0 705.3,97.2 627.2,97.2" stroke="black" stroke-width="1" /></g><g fill="none" id="planche_6"><circle cx="713.3" cy="4.4" r="0.75" stroke="green" stroke-width="1" /><circle cx="779.4" cy="4.4" r="0.75" stroke="green" stroke-width="1" /><circle cx="782.0" cy="7.0" r="0.75" stroke="green" stroke-width="1" /><circle cx="782.0" cy="42.15" r="0.75" stroke="green" stroke-width="1" /><circle cx="713.3" cy="44.75" r="0.75" stroke="green" stroke-width="1" /><circle cx="779.4" cy="44.75" r="0.75" stroke="green" stroke-width="1" /><polyline fill="none" points="707.3,1.0 785.4,1.0 785.4,48.15 707.3,48.15 707.3,1.0" stroke="black" stroke-width="1" /></g><g fill="none" id="planche_7"><circle cx="858.3" cy="38.35" r="0.75" stroke="green" stroke-width="1" /><circle cx="858.3" cy="7.0" r="0.75" stroke="green" stroke-width="1" /><polyline fill="none" points="787.4,1.0 861.7,1.0 861.7,44.35 787.4,44.35 787.4,1.0" stroke="black" stroke-width="1" /><circle cx="788.35" cy="7.0" r="0.25" stroke="pink" stroke-width="1" /><circle cx="788.35" cy="38.35" r="0.25" stroke="pink" stroke-width="1" /><circle cx="788.35" cy="3.8" r="0.4" stroke="red" stroke-width="1" /><circle cx="788.35" cy="35.15" r="0.4" stroke="red" stroke-width="1" /><circle cx="788.35" cy="10.2" r="0.4" stroke="red" stroke-width="1" /><circle cx="788.35" cy="41.55" r="0.4" stroke="red" stroke-width="1" /><circle cx="855.7" cy="43.4" r="0.25" stroke="pink" stroke-width="1" /><circle cx="795.3" cy="43.4" r="0.25" stroke="pink" stroke-width="1" /><circle cx="852.5" cy="43.4" r="0.4" stroke="red" stroke-width="1" /><circle cx="792.1" cy="43.4" r="0.4" stroke="red" stroke-width="1" /><circle cx="858.9" cy="43.4" r="0.4" stroke="red" stroke-width="1" /><circle cx="798.5" cy="43.4" r="0.4" stroke="red" stroke-width="1" /></g><g fill="none" id="planche_8"><circle cx="934.6" cy="7.0" r="0.75" stroke="green" stroke-width="1" /><circle cx="934.6" cy="38.35" r="0.75" stroke="green" stroke-width="1" /><polyline fill="none" points="863.7,44.35 938.0,44.35 938.0,1.0 863.7,1.0 863.7,44.35" stroke="black" stroke-width="1" /><circle cx="864.65" cy="38.35" r="0.25" stroke="pink" stroke-width="1" /><circle cx="864.65" cy="7.0" r="0.25" stroke="pink" stroke-width="1" /><circle cx="864.65" cy="35.15" r="0.4" stroke="red" stroke-width="1" /><circle cx="864.65" cy="3.8" r="0.4" stroke="red" stroke-width="1" /><circle cx="864.65" cy="41.55" r="0.4" stroke="red" stroke-width="1" /><circle cx="864.65" cy="10.2" r="0.4" stroke="red" stroke-width="1" /><circle cx="932.0" cy="1.95" r="0.25" stroke="pink" stroke-width="1" /><circle cx="871.6" cy="1.95" r="0.25" stroke="pink" stroke-width="1" /><circle cx="935.2" cy="1.95" r="0.4" stroke="red" stroke-width="1" /><circle cx="874.8" cy="1.95" r="0.4" stroke="red" stroke-width="1" /><circle cx="928.8" cy="1.95" r="0.4" stroke="red" stroke-width="1" /><circle cx="868.4" cy="1.95" r="0.4" stroke="red" stroke-width="1" /></g><g fill="none" id="planche_9"><circle cx="943.4" cy="38.35" r="0.75" stroke="green" stroke-width="1" /><circle cx="943.4" cy="7.0" r="0.75" stroke="green" stroke-width="1" /><circle cx="976.75" cy="38.35" r="0.75" stroke="green" stroke-width="1" /><circle cx="976.75" cy="7.0" r="0.75" stroke="green" stroke-width="1" /><polyline fill="none" points="940.0,44.35 940.0,1.0 980.15,1.0 980.15,44.35 940.0,44.35" stroke="black" stroke-width="1" /><circle cx="946.0" cy="1.95" r="0.25" stroke="pink" stroke-width="1" /><circle cx="974.15" cy="1.95" r="0.25" stroke="pink" stroke-width="1" /><circle cx="949.2" cy="1.95" r="0.4" stroke="red" stroke-width="1" /><circle cx="977.35" cy="1.95" r="0.4" stroke="red" stroke-width="1" /><circle cx="942.8" cy="1.95" r="0.4" stroke="red" stroke-width="1" /><circle cx="970.95" cy="1.95" r="0.4" stroke="red" stroke-width="1" /></g><g fill="none" id="planche_10"><circle cx="1051.15" cy="7.0" r="0.75" stroke="green" stroke-width="1" /><circle cx="1051.15" cy="35.15" r="0.75" stroke="green" stroke-width="1" /><circle cx="1048.55" cy="4.4" r="0.75" stroke="green" stroke-width="1" /><circle cx="988.15" cy="4.4" r="0.75" stroke="green" stroke-width="1" /><circle cx="1048.55" cy="37.75" r="0.75" stroke="green" stroke-width="1" /><circle cx="988.15" cy="37.75" r="0.75" stroke="green" stroke-width="1" /><circle cx="985.55" cy="7.0" r="0.75" stroke="green" stroke-width="1" /><circle cx="985.55" cy="35.15" r="0.75" stroke="green" stroke-width="1" /><polyline fill="none" points="1054.55,1.0 1054.55,41.15 982.15,41.15 982.15,1.0 1054.55,1.0" stroke="black" stroke-width="1" /></g><g fill="none" id="planche_11"><circle cx="1127.45" cy="38.35" r="0.75" stroke="green" stroke-width="1" /><circle cx="1127.45" cy="7.0" r="0.75" stroke="green" stroke-width="1" /><polyline fill="none" points="1056.55,1.0 1130.85,1.0 1130.85,44.35 1056.55,44.35 1056.55,1.0" stroke="black" stroke-width="1" /><circle cx="1057.5" cy="7.0" r="0.25" stroke="pink" stroke-width="1" /><circle cx="1057.5" cy="38.35" r="0.25" stroke="pink" stroke-width="1" /><circle cx="1057.5" cy="3.8" r="0.4" stroke="red" stroke-width="1" /><circle cx="1057.5" cy="35.15" r="0.4" stroke="red" stroke-width="1" /><circle cx="1057.5" cy="10.2" r="0.4" stroke="red" stroke-width="1" /><circle cx="1057.5" cy="41.55" r="0.4" stroke="red" stroke-width="1" /><circle cx="1124.85" cy="43.4" r="0.25" stroke="pink" stroke-width="1" /><circle cx="1064.45" cy="43.4" r="0.25" stroke="pink" stroke-width="1" /><circle cx="1121.65" cy="43.4" r="0.4" stroke="red" stroke-width="1" /><circle cx="1061.25" cy="43.4" r="0.4" stroke="red" stroke-width="1" /><circle cx="1128.05" cy="43.4" r="0.4" stroke="red" stroke-width="1" /><circle cx="1067.65" cy="43.4" r="0.4" stroke="red" stroke-width="1" /></g><g fill="none" id="planche_12"><circle cx="1203.75" cy="7.0" r="0.75" stroke="green" stroke-width="1" /><circle cx="1203.75" cy="38.35" r="0.75" stroke="green" stroke-width="1" /><polyline fill="none" points="1132.85,44.35 1207.15,44.35 1207.15,1.0 1132.85,1.0 1132.85,44.35" stroke="black" stroke-width="1" /><circle cx="1133.8" cy="38.35" r="0.25" stroke="pink" stroke-width="1" /><circle cx="1133.8" cy="7.0" r="0.25" stroke="pink" stroke-width="1" /><circle cx="1133.8" cy="35.15" r="0.4" stroke="red" stroke-width="1" /><circle cx="1133.8" cy="3.8" r="0.4" stroke="red" stroke-width="1" /><circle cx="1133.8" cy="41.55" r="0.4" stroke="red" stroke-width="1" /><circle cx="1133.8" cy="10.2" r="0.4" stroke="red" stroke-width="1" /><circle cx="1201.15" cy="1.95" r="0.25" stroke="pink" stroke-width="1" /><circle cx="1140.75" cy="1.95" r="0.25" stroke="pink" stroke-width="1" /><circle cx="1204.35" cy="1.95" r="0.4" stroke="red" stroke-width="1" /><circle cx="1143.95" cy="1.95" r="0.4" stroke="red" stroke-width="1" /><circle cx="1197.95" cy="1.95" r="0.4" stroke="red" stroke-width="1" /><circle cx="1137.55" cy="1.95" r="0.4" stroke="red" stroke-width="1" /></g><g fill="none" id="planche_13"><circle cx="1212.55" cy="38.35" r="0.75" stroke="green" stroke-width="1" /><circle cx="1212.55" cy="7.0" r="0.75" stroke="green" stroke-width="1" /><circle cx="1294.95" cy="38.35" r="0.75" stroke="green" stroke-width="1" /><circle cx="1294.95" cy="7.0" r="0.75" stroke="green" stroke-width="1" /><polyline fill="none" points="1209.15,44.35 1209.15,1.0 1298.35,1.0 1298.35,44.35 1209.15,44.35" stroke="black" stroke-width="1" /><circle cx="1215.15" cy="1.95" r="0.25" stroke="pink" stroke-width="1" /><circle cx="1292.35" cy="1.95" r="0.25" stroke="pink" stroke-width="1" /><circle cx="1218.35" cy="1.95" r="0.4" stroke="red" stroke-width="1" /><circle cx="1295.55" cy="1.95" r="0.4" stroke="red" stroke-width="1" /><circle cx="1211.95" cy="1.95" r="0.4" stroke="red" stroke-width="1" /><circle cx="1289.15" cy="1.95" r="0.4" stroke="red" stroke-width="1" /></g><g fill="none" id="planche_14"><circle cx="1369.35" cy="7.0" r="0.75" stroke="green" stroke-width="1" /><circle cx="1369.35" cy="84.2" r="0.75" stroke="green" stroke-width="1" /><circle cx="1366.75" cy="4.4" r="0.75" stroke="green" stroke-width="1" /><circle cx="1306.35" cy="4.4" r="0.75" stroke="green" stroke-width="1" /><circle cx="1366.75" cy="86.8" r="0.75" stroke="green" stroke-width="1" /><circle cx="1306.35" cy="86.8" r="0.75" stroke="green" stroke-width="1" /><circle cx="1303.75" cy="7.0" r="0.75" stroke="green" stroke-width="1" /><circle cx="1303.75" cy="84.2" r="0.75" stroke="green" stroke-width="1" /><polyline fill="none" points="1372.75,1.0 1372.75,90.2 1300.35,90.2 1300.35,1.0 1372.75,1.0" stroke="black" stroke-width="1" /></g><g fill="none" id="planche_0"><polyline fill="none" points="1374.75,401.0 1421.3,401.0 1421.3,447.55 1374.75,447.55 1374.75,401.0" stroke="black" stroke-width="1" /><circle cx="1377.0" cy="441.35" r="0.25" stroke="pink" stroke-width="1" /><circle cx="1377.0" cy="410.0" r="0.25" stroke="pink" stroke-width="1" /><circle cx="1377.0" cy="438.15" r="0.4" stroke="red" stroke-width="1" /><circle cx="1377.0" cy="406.8" r="0.4" stroke="red" stroke-width="1" /><circle cx="1377.0" cy="444.55" r="0.4" stroke="red" stroke-width="1" /><circle cx="1377.0" cy="413.2" r="0.4" stroke="red" stroke-width="1" /><circle cx="1419.05" cy="441.35" r="0.25" stroke="pink" stroke-width="1" /><circle cx="1419.05" cy="410.0" r="0.25" stroke="pink" stroke-width="1" /><circle cx="1419.05" cy="444.55" r="0.4" stroke="red" stroke-width="1" /><circle cx="1419.05" cy="413.2" r="0.4" stroke="red" stroke-width="1" /><circle cx="1419.05" cy="438.15" r="0.4" stroke="red" stroke-width="1" /><circle cx="1419.05" cy="406.8" r="0.4" stroke="red" stroke-width="1" /><circle cx="1383.95" cy="446.4" r="0.25" stroke="pink" stroke-width="1" /><circle cx="1412.1" cy="446.4" r="0.25" stroke="pink" stroke-width="1" /><circle cx="1380.75" cy="446.4" r="0.4" stroke="red" stroke-width="1" /><circle cx="1408.9" cy="446.4" r="0.4" stroke="red" stroke-width="1" /><circle cx="1387.15" cy="446.4" r="0.4" stroke="red" stroke-width="1" /><circle cx="1415.3" cy="446.4" r="0.4" stroke="red" stroke-width="1" /></g><g fill="none" id="planche_1"><polyline fill="none" points="1423.3,401.0 1518.9,401.0 1518.9,447.55 1423.3,447.55 1423.3,401.0" stroke="black" stroke-width="1" /><circle cx="1425.55" cy="441.35" r="0.25" stroke="pink" stroke-width="1" /><circle cx="1425.55" cy="410.0" r="0.25" stroke="pink" stroke-width="1" /><circle cx="1425.55" cy="438.15" r="0.4" stroke="red" stroke-width="1" /><circle cx="1425.55" cy="406.8" r="0.4" stroke="red" stroke-width="1" /><circle cx="1425.55" cy="444.55" r="0.4" stroke="red" stroke-width="1" /><circle cx="1425.55" cy="413.2" r="0.4" stroke="red" stroke-width="1" /><circle cx="1516.65" cy="441.35" r="0.25" stroke="pink" stroke-width="1" /><circle cx="1516.65" cy="410.0" r="0.25" stroke="pink" stroke-width="1" /><circle cx="1516.65" cy="444.55" r="0.4" stroke="red" stroke-width="1" /><circle cx="1516.65" cy="413.2" r="0.4" stroke="red" stroke-width="1" /><circle cx="1516.65" cy="438.15" r="0.4" stroke="red" stroke-width="1" /><circle cx="1516.65" cy="406.8" r="0.4" stroke="red" stroke-width="1" /><circle cx="1432.5" cy="446.4" r="0.25" stroke="pink" stroke-width="1" /><circle cx="1509.7" cy="446.4" r="0.25" stroke="pink" stroke-width="1" /><circle cx="1429.3" cy="446.4" r="0.4" stroke="red" stroke-width="1" /><circle cx="1506.5" cy="446.4" r="0.4" stroke="red" stroke-width="1" /><circle cx="1435.7" cy="446.4" r="0.4" stroke="red" stroke-width="1" /><circle cx="1512.9" cy="446.4" r="0.4" stroke="red" stroke-width="1" /></g></svg>